<?xml version="1.0" encoding="UTF-8"?><svg xmlns="http://www.w3.org/2000/svg" xmlns:xlink="http://www.w3.org/1999/xlink" contentScriptType="text/ecmascript" width="375pt" zoomAndPan="magnify" contentStyleType="text/css" viewBox="0 0 375 374.999991" height="374.999991pt" preserveAspectRatio="xMidYMid meet" version="1.2"><g xml:id="surface1" id="surface1"><path style=" stroke:none;fill-rule:nonzero;fill:rgb(80.778503%,89.408875%,96.469116%);fill-opacity:1;" d="M 226.078125 241.175781 C 228.632812 244.007812 230.277344 249.683594 226.875 251.972656 C 221.332031 255.675781 215.101562 254.492188 212.574219 250.179688 C 211.570312 248.4375 210.011719 243.820312 209.433594 241.871094 C 207.402344 235.101562 207.980469 226.875 206.640625 222.046875 C 206.085938 220.03125 204.363281 216.007812 202.914062 212.78125 C 208.800781 206.214844 218.957031 201.492188 222.035156 203.023438 L 222.054688 203.007812 C 224.480469 209.121094 226.175781 214.652344 226.34375 217.476562 C 226.53125 220.867188 225.308594 229.570312 224.113281 235.242188 C 223.503906 238.097656 224.9375 239.90625 226.078125 241.175781 "/><path style=" stroke:none;fill-rule:nonzero;fill:rgb(80.778503%,89.408875%,96.469116%);fill-opacity:1;" d="M 201.316406 246.703125 C 202.109375 249.386719 201.582031 252.257812 201.15625 255.011719 C 200.578125 258.8125 197.347656 262.570312 189.957031 260.789062 C 185.804688 259.785156 185.722656 255.296875 186.207031 252.257812 C 186.550781 250.0625 186.015625 247.804688 184.746094 245.96875 C 182.148438 242.242188 177.71875 235.300781 175.773438 230.816406 C 174.578125 228.0625 173.722656 220.296875 173.285156 212.101562 C 180.664062 209.085938 185.542969 210.84375 195.039062 215.292969 C 194.644531 218.851562 194.289062 222.984375 194.492188 225.011719 C 195.011719 230.269531 199.582031 240.828125 201.316406 246.703125 "/><path style=" stroke:none;fill-rule:nonzero;fill:rgb(87.838745%,92.939758%,97.648621%);fill-opacity:1;" d="M 148.386719 191.9375 C 148.671875 194.546875 147.828125 200.433594 145.953125 201.289062 C 144.757812 201.820312 143.34375 201.3125 142.976562 200.746094 C 142.535156 200.054688 142.238281 199.582031 141.539062 199.996094 C 140.117188 200.847656 136.398438 201.738281 134.503906 200.683594 C 130.296875 198.359375 131.890625 191.679688 137.386719 186.824219 L 148.386719 191.9375 "/><path style=" stroke:none;fill-rule:nonzero;fill:rgb(87.838745%,92.939758%,97.648621%);fill-opacity:1;" d="M 215.898438 189.457031 C 214.027344 185.875 211.910156 173.390625 209.371094 161.761719 C 207.449219 152.988281 205.300781 144.707031 202.820312 141.054688 L 202.820312 141.039062 C 201.929688 140.933594 201.019531 140.863281 200.066406 140.839844 C 198.785156 140.804688 197.445312 140.847656 196.058594 140.992188 C 193.921875 146.425781 189.363281 150.820312 183.308594 152.515625 C 177.414062 154.167969 171.375 152.882812 166.78125 149.535156 C 165.699219 150.128906 164.582031 150.84375 163.421875 151.664062 C 163.074219 151.894531 162.71875 152.160156 162.367188 152.417969 C 162.367188 157.964844 163.90625 165.402344 165.769531 172.609375 C 168.855469 184.558594 172.964844 196 172.941406 197.679688 C 172.890625 201.964844 173.011719 207.113281 173.285156 212.101562 C 180.664062 209.085938 185.542969 210.84375 195.039062 215.292969 C 195.40625 211.875 195.816406 208.976562 195.816406 208.976562 C 196.386719 206.617188 199.34375 206.070312 200.753906 208.066406 C 200.753906 208.066406 201.742188 210.140625 202.914062 212.78125 C 208.800781 206.214844 218.957031 201.492188 222.035156 203.023438 L 222.054688 203.007812 C 220.289062 198.539062 218.128906 193.726562 215.898438 189.457031 "/><path style=" stroke:none;fill-rule:nonzero;fill:rgb(80.778503%,89.408875%,96.469116%);fill-opacity:1;" d="M 162.367188 152.417969 C 158.863281 155.007812 155.140625 158.460938 151.640625 162.1875 C 142.785156 171.644531 135.453125 182.917969 137.386719 186.824219 L 148.386719 191.9375 C 153.558594 191.808594 158.816406 180.320312 165.769531 172.609375 C 163.90625 165.402344 162.367188 157.964844 162.367188 152.417969 "/><path style=" stroke:none;fill-rule:nonzero;fill:rgb(87.838745%,92.939758%,97.648621%);fill-opacity:1;" d="M 239.617188 164.027344 C 245.316406 164.949219 251.308594 168.605469 248.972656 173.605469 C 248.140625 175.359375 242.515625 176.738281 242.113281 177.226562 C 241.648438 177.78125 241.710938 179.597656 241.257812 180.164062 C 240.804688 180.738281 238.484375 181.554688 237.054688 180.441406 C 235.621094 179.300781 233.496094 176.390625 232.9375 174.101562 L 239.617188 164.027344 "/><path style=" stroke:none;fill-rule:nonzero;fill:rgb(80.778503%,89.408875%,96.469116%);fill-opacity:1;" d="M 239.617188 164.027344 L 232.9375 174.101562 C 229.5 175.46875 223.539062 170.449219 209.585938 161.714844 L 209.371094 161.761719 C 207.449219 152.988281 205.300781 144.707031 202.820312 141.054688 L 204.632812 141.328125 C 205.5625 141.441406 206.570312 141.691406 207.652344 142.050781 C 211.046875 143.164062 214.960938 145.253906 217.855469 146.964844 C 219.976562 148.207031 221.558594 149.238281 222.035156 149.535156 C 230.292969 154.769531 241.101562 160.3125 239.617188 164.027344 "/><path style=" stroke:none;fill-rule:nonzero;fill:rgb(40.388489%,79.60968%,70.588684%);fill-opacity:1;" d="M 253.726562 144.371094 C 253.726562 146.554688 251.398438 147.824219 249.214844 147.824219 C 247.03125 147.824219 245.261719 146.050781 245.261719 143.867188 C 245.261719 141.683594 247.453125 139.402344 249.636719 139.402344 C 251.824219 139.402344 253.726562 142.183594 253.726562 144.371094 "/><path style=" stroke:none;fill-rule:nonzero;fill:rgb(37.249756%,41.178894%,73.329163%);fill-opacity:1;" d="M 254.902344 222.214844 C 254.902344 225.3125 251.601562 227.117188 248.5 227.117188 C 245.398438 227.117188 242.886719 224.601562 242.886719 221.5 C 242.886719 218.398438 246 215.15625 249.101562 215.15625 C 252.203125 215.15625 254.902344 219.113281 254.902344 222.214844 "/><path style=" stroke:none;fill-rule:nonzero;fill:rgb(42.749023%,56.858826%,82.348633%);fill-opacity:1;" d="M 142.980469 129.042969 C 142.980469 131.207031 140.675781 132.464844 138.511719 132.464844 C 136.347656 132.464844 134.589844 130.707031 134.589844 128.542969 C 134.589844 126.378906 136.765625 124.113281 138.929688 124.113281 C 141.09375 124.113281 142.980469 126.878906 142.980469 129.042969 "/><path style=" stroke:none;fill-rule:nonzero;fill:rgb(96.469116%,51.759338%,21.179199%);fill-opacity:1;" d="M 146.257812 147.746094 C 146.257812 149.351562 144.550781 150.28125 142.949219 150.28125 C 141.34375 150.28125 140.046875 148.984375 140.046875 147.382812 C 140.046875 145.777344 141.65625 144.097656 143.257812 144.097656 C 144.863281 144.097656 146.257812 146.144531 146.257812 147.746094 "/><path style=" stroke:none;fill-rule:nonzero;fill:rgb(94.898987%,32.548523%,36.079407%);fill-opacity:1;" d="M 126.269531 162.859375 C 126.269531 164.464844 124.5625 165.394531 122.960938 165.394531 C 121.355469 165.394531 120.054688 164.097656 120.054688 162.492188 C 120.054688 160.890625 121.667969 159.214844 123.269531 159.214844 C 124.875 159.214844 126.269531 161.253906 126.269531 162.859375 "/><path style=" stroke:none;fill-rule:nonzero;fill:rgb(93.728638%,17.649841%,43.528748%);fill-opacity:1;" d="M 160.042969 243.3125 C 160.042969 244.917969 158.339844 245.851562 156.738281 245.851562 C 155.136719 245.851562 153.832031 244.546875 153.832031 242.945312 C 153.832031 241.339844 155.441406 239.667969 157.050781 239.667969 C 158.648438 239.667969 160.042969 241.710938 160.042969 243.3125 "/><path style=" stroke:none;fill-rule:nonzero;fill:rgb(98.429871%,79.60968%,39.608765%);fill-opacity:1;" d="M 132.226562 221.683594 L 133.230469 223.523438 C 133.3125 223.667969 133.429688 223.789062 133.574219 223.867188 L 135.414062 224.875 C 136.019531 225.207031 136.019531 226.074219 135.414062 226.402344 L 133.574219 227.410156 C 133.429688 227.488281 133.3125 227.609375 133.230469 227.757812 L 132.226562 229.59375 C 131.898438 230.199219 131.027344 230.199219 130.695312 229.59375 L 129.691406 227.757812 C 129.613281 227.609375 129.492188 227.488281 129.34375 227.410156 L 127.507812 226.402344 C 126.898438 226.074219 126.898438 225.207031 127.507812 224.875 L 129.34375 223.867188 C 129.492188 223.789062 129.613281 223.667969 129.691406 223.523438 L 130.695312 221.683594 C 131.027344 221.082031 131.898438 221.082031 132.226562 221.683594 "/><path style=" stroke:none;fill-rule:nonzero;fill:rgb(98.429871%,79.60968%,39.608765%);fill-opacity:1;" d="M 226.179688 127.480469 L 227.238281 129.410156 C 227.320312 129.5625 227.445312 129.691406 227.597656 129.773438 L 229.527344 130.828125 C 230.164062 131.175781 230.164062 132.082031 229.527344 132.429688 L 227.597656 133.488281 C 227.445312 133.570312 227.320312 133.695312 227.238281 133.851562 L 226.179688 135.777344 C 225.832031 136.414062 224.925781 136.414062 224.578125 135.777344 L 223.523438 133.851562 C 223.441406 133.695312 223.3125 133.570312 223.15625 133.488281 L 221.230469 132.429688 C 220.597656 132.082031 220.597656 131.175781 221.230469 130.828125 L 223.15625 129.773438 C 223.3125 129.691406 223.441406 129.5625 223.523438 129.410156 L 224.578125 127.480469 C 224.925781 126.84375 225.832031 126.84375 226.179688 127.480469 "/><path style=" stroke:none;fill-rule:nonzero;fill:rgb(65.489197%,75.289917%,90.19928%);fill-opacity:1;" d="M 200.066406 140.839844 C 197.824219 148.019531 192.105469 153.941406 184.320312 156.125 C 176.761719 158.238281 169.03125 156.328125 163.421875 151.664062 C 164.582031 150.84375 165.699219 150.128906 166.78125 149.535156 C 171.375 152.882812 177.414062 154.167969 183.308594 152.515625 C 189.363281 150.820312 193.921875 146.425781 196.058594 140.992188 C 197.445312 140.847656 198.785156 140.804688 200.066406 140.839844 "/><path style=" stroke:none;fill-rule:nonzero;fill:rgb(87.838745%,92.939758%,97.648621%);fill-opacity:1;" d="M 196.664062 128.773438 C 199.535156 139.019531 193.554688 149.648438 183.316406 152.515625 C 173.070312 155.386719 162.441406 149.410156 159.570312 139.167969 C 156.703125 128.921875 162.683594 118.292969 172.921875 115.421875 C 183.167969 112.554688 193.796875 118.535156 196.664062 128.773438 "/><path style=" stroke:none;fill-rule:nonzero;fill:rgb(27.059937%,23.529053%,39.219666%);fill-opacity:1;" d="M 196.648438 128.703125 C 198.671875 135.9375 192.007812 144.125 181.765625 146.996094 C 171.523438 149.867188 161.578125 146.328125 159.554688 139.097656 C 157.527344 131.867188 164.1875 123.675781 174.429688 120.804688 C 184.671875 117.9375 194.621094 121.476562 196.648438 128.703125 "/><path style=" stroke:none;fill-rule:nonzero;fill:rgb(100%,100%,100%);fill-opacity:1;" d="M 194.382812 174.253906 L 185.144531 176.839844 C 182.707031 177.519531 180.175781 176.097656 179.496094 173.664062 L 177.640625 167.046875 C 176.960938 164.605469 178.382812 162.074219 180.816406 161.394531 L 190.058594 158.808594 C 192.492188 158.125 195.023438 159.542969 195.707031 161.984375 L 197.558594 168.601562 C 198.242188 171.039062 196.824219 173.566406 194.382812 174.253906 "/><path style=" stroke:none;fill-rule:nonzero;fill:rgb(42.749023%,56.858826%,82.348633%);fill-opacity:1;" d="M 217.855469 146.964844 C 212.933594 152.65625 208.589844 145.433594 207.636719 142.058594 L 207.652344 142.050781 C 211.046875 143.164062 214.960938 145.253906 217.855469 146.964844 "/><path style=" stroke:none;fill-rule:nonzero;fill:rgb(94.898987%,32.548523%,36.079407%);fill-opacity:1;" d="M 195.035156 217.070312 C 194.527344 217.070312 194.03125 216.859375 193.679688 216.449219 C 189.191406 211.222656 180.363281 211.132812 173.957031 213.75 C 173.042969 214.125 172.003906 213.683594 171.632812 212.773438 C 171.261719 211.867188 171.699219 210.828125 172.613281 210.457031 C 179.964844 207.453125 190.539062 207.324219 196.382812 214.132812 C 197.023438 214.875 196.9375 216 196.1875 216.640625 C 195.855469 216.929688 195.441406 217.070312 195.035156 217.070312 "/><path style=" stroke:none;fill-rule:nonzero;fill:rgb(94.898987%,32.548523%,36.079407%);fill-opacity:1;" d="M 202.910156 214.554688 C 202.636719 214.554688 202.363281 214.488281 202.101562 214.359375 C 201.226562 213.914062 200.878906 212.84375 201.324219 211.96875 C 205.292969 204.171875 218.460938 199.257812 222.828125 201.425781 C 223.710938 201.863281 224.070312 202.933594 223.628906 203.808594 C 223.195312 204.695312 222.125 205.050781 221.246094 204.617188 C 219.242188 203.621094 207.863281 206.972656 204.5 213.582031 C 204.183594 214.199219 203.558594 214.554688 202.910156 214.554688 "/></g></svg>