<?xml version="1.0" encoding="utf-8"?>
<!-- Generator: Adobe Illustrator 25.3.1, SVG Export Plug-In . SVG Version: 6.00 Build 0)  -->
<svg version="1.1" id="Calque_1" xmlns="http://www.w3.org/2000/svg" xmlns:xlink="http://www.w3.org/1999/xlink" x="0px" y="0px"
	 viewBox="0 0 375 160.2" style="enable-background:new 0 0 375 160.2;" xml:space="preserve">
<style type="text/css">
	.st0{fill:#34B7E2;}
	.st1{fill:#80D5F5;}
	.st2{fill:#EEC328;}
	.st3{fill:#87CB3D;}
	.st4{fill:#A4D53B;}
	.st5{clip-path:url(#SVGID_2_);}
	.st6{fill:#1C9FC8;}
	.st7{fill:#2E301A;}
	.st8{fill:#555A50;}
	.st9{fill:#C1BAC5;}
	.st10{fill:#98DAEE;}
	.st11{fill:#4298B3;}
	.st12{fill:#65C5E8;}
	.st13{fill:#B38AC8;}
	.st14{fill:#C5A6D7;}
	.st15{fill:#63B534;}
	.st16{clip-path:url(#SVGID_4_);}
	.st17{fill:#D9ECCC;}
	.st18{fill:#2A2E2D;}
	.st19{fill:#888D8A;}
	.st20{fill:#CCCED4;}
	.st21{fill:#FFFFFF;}
	.st22{fill:#5F9E48;}
	.st23{fill:#266A8D;}
	.st24{fill:#1E5171;}
	.st25{fill:#F49EB0;}
	.st26{fill:#F3B7BD;}
	.st27{fill:#A680BF;}
	.st28{fill:#9A74B5;}
	.st29{fill:#795696;}
	.st30{fill:#5A3572;}
	.st31{fill:#8D71A8;}
	.st32{fill:#B99ACF;}
	.st33{fill:#D2BDDC;}
	.st34{fill:#906BAC;}
	.st35{clip-path:url(#SVGID_6_);}
	.st36{fill:#E4E6E9;}
	.st37{fill:#BFC3CA;}
	.st38{fill:#ED6E8F;}
	.st39{fill:#F3ABB7;}
	.st40{fill:#F2869F;}
	.st41{fill:#D67D8F;}
	.st42{fill:#546450;}
	.st43{fill:#C06879;}
	.st44{fill:#F6D1DE;}
	.st45{fill:#E2879A;}
	.st46{fill:#663633;}
	.st47{fill:#F9CD32;}
	.st48{fill:#E2B921;}
	.st49{fill:#F7EBB7;}
	.st50{fill:#F8E39C;}
	.st51{fill:#D5AE21;}
	.st52{fill:#BD9920;}
	.st53{fill:#A08429;}
	.st54{fill:#CFB054;}
	.st55{fill:#E2A0A2;}
	.st56{fill:#D77979;}
	.st57{fill:#F2F3F5;}
</style>
<g id="surface1">
	<path class="st0" d="M293.7,89.7c0,0-9.8,0.8-14.4-2.9c-4.6-3.7-2.3-6.6-7.6-8c-5.3-1.4-9,4.7-4.7,10.3c4.3,5.6,17.6,8.3,23.2,5.3
		C295.7,91.5,293.7,89.7,293.7,89.7"/>
	<path class="st1" d="M271,79.8c0,0,3,0.8,2,4.5c-1.1,3.7-0.6,5.2,4,6.3s13.1-0.1,13.1-0.1s-9,0.2-12.1-3.7
		C274.8,82.9,275.1,79.3,271,79.8"/>
	<path class="st2" d="M271.7,78c0,0,11.7,22.3,24.2,26.1c0,0,1.2-2.1,3.1-0.3c0,0,3.4,0,3.1,2.9c-0.3,2.9-14.9,6.7-30.4-26.6
		L271.7,78"/>
	<path class="st3" d="M235.9,92.7c0,0,9.7-2.6,12.9-7.7c3.2-5.1,0-7.2,4.6-10.3c4.6-3.1,10.4,1.5,8.1,8.4
		c-2.2,6.9-14.3,14.1-20.6,13C234.6,95.1,235.9,92.7,235.9,92.7"/>
	<path class="st4" d="M254.6,75.4c0,0-2.7,1.8-0.4,5c2.3,3.3,2.4,4.8-1.7,7.5c-4.1,2.7-12.8,4.3-12.8,4.3s8.8-2.9,10.5-7.7
		C252,79.7,250.4,76.3,254.6,75.4"/>
	<path class="st0" d="M355.1,84.7c0,0,6.7-7.2,6.6-13.1s-3.8-5.9-1.6-10.9s9.3-4.2,11.1,2.7c1.7,6.8-4.4,19-10.2,21.5
		C355.2,87.4,355.1,84.7,355.1,84.7"/>
	<path class="st1" d="M361.4,60.8c0,0-1.3,2.9,2.3,4.3c3.6,1.5,4.5,2.7,2.5,7.1c-2,4.4-8.2,10.2-8.2,10.2s5.7-6.9,4.6-11.8
		C361.5,65.7,358.4,63.7,361.4,60.8"/>
	<g>
		<defs>
			<rect id="SVGID_1_" x="280.3" y="52.9" width="94.5" height="97.7"/>
		</defs>
		<clipPath id="SVGID_2_">
			<use xlink:href="#SVGID_1_"  style="overflow:visible;"/>
		</clipPath>
		<g class="st5">
			<path class="st6" d="M288.1,118.5c-1.4,4.6-9.7,17.2-6.7,24.5c3,7.3,15.8,7.7,30.8,6.3c15-1.3,26.7-0.7,42,0.5
				c15.3,1.2,20.8,0.8,20.5-8.2c-0.3-9-8.5-24.3-10.3-36.8s-9.2-49.5-34.2-51.7c-22.1-1.9-32.8,19-36.7,34
				C289.8,102.1,290.6,110.3,288.1,118.5"/>
		</g>
	</g>
	<path class="st0" d="M290.1,115.8c-1.3,4.3-9.2,16-6.3,22.8c2.8,6.8,15,7.1,29.3,5.9c14.2-1.2,25.3-0.6,39.9,0.5
		c14.6,1.1,19.8,0.8,19.5-7.6s-8.1-22.7-9.8-34.3c-1.7-11.7-8.7-46.2-32.5-48.2c-21-1.8-31.2,17.7-34.8,31.7
		C291.7,100.5,292.5,108.1,290.1,115.8"/>
	<path class="st6" d="M300.4,83c0,2.8,2.3,5.1,5.1,5.1c2.8,0,5.1-2.3,5.1-5.1s-2.3-5.1-5.1-5.1C302.7,77.9,300.4,80.2,300.4,83"/>
	<path class="st7" d="M302.1,83.3c0,2.2,1.8,4,4,4c2.2,0,3.9-1.8,3.9-4c0-2.2-1.8-4-3.9-4C303.9,79.4,302.1,81.2,302.1,83.3"/>
	<path class="st8" d="M303.5,83.3c0,1.4,1.2,2.6,2.6,2.6c1.4,0,2.6-1.2,2.6-2.6c0-1.4-1.2-2.6-2.6-2.6
		C304.7,80.7,303.5,81.9,303.5,83.3"/>
	<path class="st9" d="M303.4,84.9c0,0.7,0.6,1.3,1.3,1.3s1.3-0.6,1.3-1.3s-0.6-1.3-1.3-1.3S303.4,84.2,303.4,84.9"/>
	<path class="st6" d="M352.1,83c0,2.8-2.3,5.1-5.1,5.1c-2.8,0-5.1-2.3-5.1-5.1s2.3-5.1,5.1-5.1C349.8,77.9,352.1,80.2,352.1,83"/>
	<path class="st7" d="M350.4,83.3c0,2.2-1.8,4-4,4s-3.9-1.8-3.9-4c0-2.2,1.8-4,3.9-4S350.4,81.2,350.4,83.3"/>
	<path class="st8" d="M349,83.3c0,1.4-1.2,2.6-2.6,2.6c-1.4,0-2.6-1.2-2.6-2.6c0-1.4,1.2-2.6,2.6-2.6C347.9,80.7,349,81.9,349,83.3"
		/>
	<path class="st9" d="M346.1,84.9c0,0.7-0.6,1.3-1.3,1.3c-0.7,0-1.3-0.6-1.3-1.3s0.6-1.3,1.3-1.3C345.6,83.6,346.1,84.2,346.1,84.9"
		/>
	<path class="st10" d="M313.3,90.6c0,1-0.8,1.8-1.8,1.8c-1,0-1.8-0.8-1.8-1.8c0-1,0.8-1.8,1.8-1.8C312.5,88.7,313.3,89.6,313.3,90.6
		"/>
	<path class="st10" d="M344.1,90.9c0,1-0.8,1.8-1.8,1.8s-1.8-0.8-1.8-1.8s0.8-1.8,1.8-1.8S344.1,89.9,344.1,90.9"/>
	<path class="st11" d="M342.3,90.9c0.2,0.2-6.3,3.2-14.9,3c-8.5-0.1-15-2.7-14.9-3c0.1-0.3,6.6,1.9,14.9,2
		C335.8,93.1,342.2,90.6,342.3,90.9"/>
	<path class="st1" d="M322.5,96.7c-0.8-0.5,2.1-1.2,4.5-0.3c2.4,1,5.1-1.5,5.6-0.3S325.8,99,322.5,96.7"/>
	<path class="st1" d="M345.4,143.4c-4.3-3.9,7.1-7.4,4.8-10.6s-3.6,1.9-7.1-1.3c-3.5-3.2,13-16.6,8.7-19.4
		c-4.3-2.8-9.4,6.8-13.4,7.5c-4,0.7-3.5-3.8-6.8-3.8s-3.2,3.2-8.1,4.3c-4.9,1.2-11.4-13.9-16.2-10.3c-4.8,3.6,7.4,7.2,6.5,10.8
		c-0.9,3.6-10.7-3.8-13.6,1.6c-2.9,5.3,12.4,4.8,11.8,8.5c-0.6,3.8-4.2,2.3-6.4,5.5c-2.2,3.2,7.5,3.8,7.5,6.4c0,2.6-5.2,3.3-9.8,4.8
		c-2.1,0.6-2.3,1.5-2,2.3c3.4,0,7.1-0.3,10.9-0.6c15-1.3,26.7-0.7,42,0.5c0.3,0,0.5,0,0.8,0.1C353.9,147.5,348.8,146.5,345.4,143.4"
		/>
	<path class="st12" d="M313.1,144.5c-0.3,0-0.7,0.1-1,0.1c-1.8,1.3-5.4,1.9-8.7,3c-2.1,0.6-2.3,1.5-2,2.3c3.4,0,7.1,0.2,11-0.1
		c12.8-0.9,27.2-0.4,41.9,0c0.3,0,0.5,0,0.8,0.1c-1-2-4.9-3.1-8.2-5.3C335.1,143.7,325.2,143.4,313.1,144.5"/>
	<path class="st1" d="M301.7,133.6c0,0.8-1.3,1.5-2.9,1.5c-1.6,0-2.9-0.7-2.9-1.5s1.3-1.5,2.9-1.5
		C300.4,132.1,301.7,132.8,301.7,133.6"/>
	<path class="st1" d="M299.9,116c0,0.4-1,0.8-2.2,0.8c-1.2,0-2.2-0.4-2.2-0.8s1-0.8,2.2-0.8C298.9,115.2,299.9,115.6,299.9,116"/>
	<path class="st1" d="M307.8,118.4c0,0.4-0.6,0.6-1.4,0.6s-1.4-0.3-1.4-0.6c0-0.4,0.6-0.7,1.4-0.7S307.8,118.1,307.8,118.4"/>
	<path class="st1" d="M306.2,106.7c0,0.4-0.8,0.6-1.7,0.6c-1,0-1.7-0.3-1.7-0.6c0-0.4,0.8-0.7,1.7-0.7
		C305.4,106.1,306.2,106.4,306.2,106.7"/>
	<path class="st1" d="M326.9,109c0,1-1.5,1.7-3.2,1.7c-1.8,0-3.2-0.8-3.2-1.7s1.5-1.7,3.2-1.7C325.4,107.2,326.9,108,326.9,109"/>
	<path class="st1" d="M336.1,110.2c0,0.3-0.5,0.5-1.1,0.5c-0.6,0-1.1-0.2-1.1-0.5c0-0.3,0.5-0.5,1.1-0.5
		C335.6,109.7,336.1,109.9,336.1,110.2"/>
	<path class="st1" d="M326.4,115c0,0.2-0.7,0.4-1.5,0.4s-1.5-0.2-1.5-0.4s0.7-0.4,1.5-0.4S326.4,114.8,326.4,115"/>
	<path class="st1" d="M355.2,106.8c0,0.5-1,0.9-2.3,0.9s-2.3-0.4-2.3-0.9c0-0.5,1-0.9,2.3-0.9S355.2,106.3,355.2,106.8"/>
	<path class="st1" d="M354,126.3c0,0.4-0.9,0.7-1.9,0.7c-1.1,0-2-0.3-2-0.7s0.9-0.7,2-0.7C353.2,125.6,354,125.9,354,126.3"/>
	<path class="st1" d="M358.8,120.8c0,0.4-0.6,0.7-1.3,0.7c-0.7,0-1.3-0.3-1.3-0.7c0-0.4,0.6-0.6,1.3-0.6
		C358.2,120.1,358.8,120.4,358.8,120.8"/>
	<path class="st1" d="M354.5,135.4c0,0.2-0.4,0.3-0.9,0.3s-0.9-0.1-0.9-0.3s0.4-0.3,0.9-0.3S354.5,135.3,354.5,135.4"/>
	<path class="st7" d="M304.5,69.8c-2.5,0.7-3.6,2.9-3.7,3l2.1,1.1c0,0,0.8-1.4,2.3-1.8c1-0.3,2.1,0,3.3,0.8l1.2-2
		C307.9,69.7,306.2,69.4,304.5,69.8"/>
	<path class="st7" d="M348.5,70.3c-2.5-0.3-4.4,1.4-4.5,1.5l1.5,1.8c0,0,1.3-1.1,2.8-0.9c1,0.1,2,0.8,2.8,1.9l1.9-1.4
		C351.7,71.4,350.2,70.5,348.5,70.3"/>
	<path class="st2" d="M265,74.2c0,0-11.7,22.3-24.2,26.1c0,0-1.2-2.1-3.1-0.3c0,0-3.4,0-3.1,2.9c0.3,2.9,14.9,6.7,30.4-26.6
		L265,74.2"/>
	<path class="st13" d="M165.7,84.6c0,0,7.8,8.2,14.6,10.4c6.8,2.2,13.6,0.3,15.2,3.8c1.6,3.5-1.6,10.8-7.4,9.2
		c-5.8-1.6-18.9-11.6-22.7-18.4L165.7,84.6"/>
	<path class="st14" d="M167.7,87.1c0,0,6.4,6.7,11.9,8.5c5.6,1.8,11.1,0.2,12.4,3.1c1.3,2.9-1.3,8.8-6,7.5
		c-4.7-1.3-15.4-9.4-18.5-15L167.7,87.1"/>
	<path class="st3" d="M175.4,90.6c0,0-6,5.8-10.9,5.8s-5.1-3.1-9.2-1.2c-4.2,1.9-3.4,8,2.5,9.3c5.8,1.4,16-4.1,18-9
		C177.7,90.7,175.4,90.6,175.4,90.6"/>
	<path class="st4" d="M155.3,96.4c0,0,2.4-1.1,3.7,1.9c1.3,3,2.3,3.7,6,2c3.7-1.7,8.5-7.1,8.5-7.1s-5.8,5-9.9,4.1
		C159.4,96.4,157.7,93.8,155.3,96.4"/>
	<path class="st15" d="M179.3,135.5c0,0-6.7,3.9-6.1,6.5c0.6,2.6,4.7,3.2,10.1-1.4s10.7-6.3,14.9-4.2c4.1,2.1,0.6,8.5,6.6,9
		c6,0.5,2.1-6.4,9-8c6.9-1.6,9.9-0.9,12.9,2.8s10.6,11.1,13.5,6C243,141.2,203.6,118.1,179.3,135.5"/>
	<g>
		<defs>
			<rect id="SVGID_3_" x="159.7" y="45.9" width="87.7" height="112.3"/>
		</defs>
		<clipPath id="SVGID_4_">
			<use xlink:href="#SVGID_3_"  style="overflow:visible;"/>
		</clipPath>
		<g class="st16">
			<path class="st3" d="M169.7,136.2c4.2-2.4,8.4-12.3,7.7-24.5c-0.7-12.1-6.7-29.3-1.1-45.8c5.6-16.5,27.7-22.5,43.5-18.2
				c15.8,4.4,23.7,18.7,20,44.9c-3.7,26.2-2,29.7-1.7,37.8s4.6,10.5,8,12.4c3.4,1.9-1.7,8.4-6.8,5.3c-5.1-3-5.8-8.8-9.6-9.7
				c-6.3-1.5-7.1,5.1-5.7,9.9c1.4,4.9,3.9,9.8-1.6,9.8c-5.7,0.1-7.3-7.4-6.4-14.6s-0.5-10.3-9.3-11.1c-8.8-0.8-13.1,0.2-13.8,7.9
				c-0.7,7.7-1.4,15.5-6.8,14.6s-2.3-7.3-0.3-12.3c2-5,2.1-8.1-2.1-8.1c-4.2,0-6.9,9.3-13.1,9.7c-6.2,0.5-11-1-10.7-4.1
				C160.2,137.1,163.7,139.6,169.7,136.2"/>
		</g>
	</g>
	<path class="st15" d="M203,94.7c-0.6,6.3-6.1,11-12.4,10.4c-6.3-0.5-11-6.1-10.4-12.4c0.6-6.3,6.1-11,12.4-10.4
		C198.8,82.8,203.5,88.4,203,94.7"/>
	<path class="st17" d="M203.2,91.7c-0.6,6.3-6.1,11-12.4,10.4c-6.3-0.6-11-6.1-10.4-12.4c0.5-6.3,6.1-11,12.4-10.4
		C199.1,79.8,203.8,85.4,203.2,91.7"/>
	<path class="st18" d="M179.4,89.6c-0.6,6.9,4.5,12.9,11.3,13.5c6.9,0.6,12.9-4.5,13.5-11.3c0.6-6.9-4.5-12.9-11.3-13.5
		C186,77.7,180,82.8,179.4,89.6z M181.4,89.8c0.5-5.8,5.6-10,11.3-9.5s10,5.6,9.5,11.3c-0.5,5.8-5.6,10-11.3,9.5
		C185.1,100.6,180.9,95.6,181.4,89.8"/>
	<path class="st19" d="M195.2,91.1c-0.1,0.6-0.6,1.1-1.2,1c-0.6-0.1-1.1-0.6-1-1.2c0.1-0.6,0.6-1.1,1.2-1
		C194.8,90,195.2,90.5,195.2,91.1"/>
	<path class="st15" d="M212.9,94.1c-0.5,6.3,4.1,11.9,10.4,12.4c6.3,0.6,11.9-4.1,12.4-10.4c0.6-6.3-4.1-11.9-10.4-12.4
		C219,83.1,213.4,87.7,212.9,94.1"/>
	<path class="st17" d="M213.1,91.1c-0.6,6.3,4.1,11.9,10.4,12.4c6.3,0.6,11.9-4.1,12.4-10.4c0.6-6.3-4.1-11.9-10.4-12.4
		C219.2,80.1,213.7,84.8,213.1,91.1"/>
	<path class="st18" d="M225.6,79.6c-6.9-0.6-12.9,4.5-13.5,11.3s4.5,12.9,11.3,13.5c6.9,0.6,12.9-4.5,13.5-11.3
		C237.6,86.3,232.5,80.2,225.6,79.6z M223.6,102.5c-5.8-0.5-10-5.6-9.5-11.3c0.5-5.8,5.6-10,11.3-9.5c5.8,0.5,10,5.6,9.5,11.3
		C234.5,98.7,229.4,103,223.6,102.5"/>
	<path class="st19" d="M218.3,91.8c-0.1,0.6,0.4,1.1,1,1.2c0.6,0.1,1.1-0.4,1.2-1c0.1-0.6-0.4-1.1-1-1.2
		C218.8,90.7,218.3,91.2,218.3,91.8"/>
	<path class="st15" d="M204.5,107.2c0,0-0.2,3.5,0.9,4.8c0,0-1.5,1.3-1.4,2.7c0,0,2.5-4.6,5.8-0.2l0.2-2.1c0,0,1.5-0.6,3.9,1.8
		c0,0-1.8-1.4-1.6-3.5C212.5,108.7,209.2,105.5,204.5,107.2"/>
	<path class="st20" d="M214,104.4l-8.8,2.7c0,0-0.6,3.5,0,4.3s4.2,0.4,5.3,0.1c1.1-0.2,0.7-1,0.7-1s0.5,0.9,1.5,0.8
		c1-0.2,4-1.6,4.1-2.8C216.7,107.4,214,104.4,214,104.4"/>
	<path class="st21" d="M213.5,104.9l-7.7,2.4c0,0-0.7,3.2,0.3,3.6c1,0.4,3.6,0.6,4.2-0.3s0.4-2.7,0.4-2.7s1,2.6,1.8,2.5
		c0.8-0.1,3.1-1,3.2-2C215.8,107.3,213.5,104.9,213.5,104.9"/>
	<path class="st22" d="M216.5,102.3c0.2,0-2.7,4.1-8.5,4.9c-5.8,0.8-9.8-2.3-9.5-2.5c0.1-0.4,4.1,1.9,9.4,1.2
		C213,105.3,216.2,101.9,216.5,102.3"/>
	<path class="st18" d="M202.7,91.8c-0.4,0.3-0.5,1-0.2,1.4c0.3,0.4,1,0.5,1.4,0.2c0.2-0.1,4.3-3.3,8.6,0.9c0.4,0.4,1,0.4,1.4,0
		c0.4-0.4,0.4-1,0-1.4C208.3,87.5,202.7,91.8,202.7,91.8"/>
	<path class="st7" d="M190.1,67.6c-3.2,0.6-5,3.3-5.1,3.4l2.5,1.6c0,0,1.2-1.8,3.1-2.1c1.3-0.2,2.7,0.2,4.2,1.4l1.8-2.4
		C194.5,67.9,192.3,67.3,190.1,67.6"/>
	<path class="st7" d="M226.3,67c-3.3-0.2-5.7,2-5.8,2.1l2.1,2.2c0,0,1.6-1.4,3.5-1.3c1.3,0.1,2.6,0.9,3.7,2.4l2.4-1.9
		C230.4,68.4,228.4,67.2,226.3,67"/>
	<path class="st4" d="M206.5,47.4c9.4-0.9,19,2.7,22.4,6.8c3.4,4.1,1.4,10.1-9.5,10.3c-10.8,0.3,4.3,14.1-5.3,15.3
		c-9.5,1.2-17.6-0.3-13.6-7.7c4.1-7.4,4-9.1-4.2-8.8S177.3,50.3,206.5,47.4"/>
	<path class="st4" d="M185.6,152.9c1.9,0.7,3.3-1.3,3.7-5.6c0.4-4.3,1-8.2-0.2-7.2C187.9,141.1,183,152,185.6,152.9"/>
	<path class="st4" d="M162.4,141.6c-0.1,1.1,6.2,2.2,8.4,1.2c2.3-1,6.6-5.9,7.6-7.6c1.1-1.8-3,1.4-5.5,3.2
		C170.5,140.2,162.7,139.7,162.4,141.6"/>
	<path class="st4" d="M219.8,146.1c-1.4,1.1,0.4,11.4,2.8,9.7C224.9,154.2,221.6,144.7,219.8,146.1"/>
	<path class="st4" d="M236.4,140.8c-0.7-0.3,1.9,4.1,3.8,5.4s6.2,0.7,6.2-1C246.4,143.6,244.6,144.1,236.4,140.8"/>
	<path class="st23" d="M206.3,117.2c0,0-5.1-3.6-6.3-2.7c-1.2,0.9-1.1,8.1,0.2,8.5c1.2,0.4,6.5-3,6.5-3L206.3,117.2"/>
	<path class="st23" d="M208.7,117.2c0,0,5.1-3.6,6.3-2.7c1.2,0.9,1.1,8.1-0.1,8.5c-1.2,0.4-6.5-2.9-6.5-2.9L208.7,117.2"/>
	<path class="st24" d="M209.4,116.6c0,0-2.2-1-4.1,0l-0.1,4.3c0,0,1.8,0.8,4.5-0.2L209.4,116.6"/>
	<path class="st25" d="M84.4,99.4c0,0,9.3,5.4,16.9,8s14.6,2.2,13.8-4.3c-0.7-6.5-4.3-0.3-5.7-1.9c-1.5-1.6,0.6-3.2-4.5-1.2
		c-5.1,2-12.5,0.8-15.4-0.8C86.6,97.7,83.3,96.7,84.4,99.4"/>
	<path class="st26" d="M111.1,107.7c1.2-0.4,2.6-2.2,0.5-3.5c-2-1.3-3.9-1.1-5.5-2.5s-3-0.9-3.4,1c-0.3,1.9-6.8,0.2-5.2,2.1
		C99.2,106.8,108.6,108.5,111.1,107.7"/>
	<path class="st13" d="M82,76.3c0,0-8.6-7.4-11.1-14.1c-2.5-6.7-0.9-13.6-4.5-15.1c-3.6-1.5-10.7,2.1-8.8,7.8
		c1.9,5.7,12.5,18.4,19.5,21.8L82,76.3"/>
	<path class="st14" d="M79.5,74.4c0,0-7-6-9-11.5c-2.1-5.5-0.8-11.1-3.7-12.3c-2.9-1.2-8.7,1.7-7.2,6.4c1.6,4.6,10.2,14.9,15.9,17.7
		L79.5,74.4"/>
	<path class="st13" d="M96.8,143.2c0,0,1.4-27.5-0.7-44.8S89.4,58.8,93,48.9c3.6-9.9,22.3-19.6,40.3-19c18,0.7,38.9,8.1,38.3,19.5
		c-0.6,11.5-4.3,86.8-2.7,91.6c0,0,6.6,7.4-0.8,8.4c-7.4,1-10.2-0.3-10.1-4.9s1.8-6.7-14.6-8c-16.4-1.3-32.3,0.2-35.4,4.1
		c-3.1,3.9,3.6,7-1.6,9.1C101.2,151.9,88.4,150.6,96.8,143.2"/>
	<path class="st27" d="M152.2,32.3c-12.5-3.7-26.3-4.5-38.8-0.2c-7,2.4-14.4,7.2-18.8,13.5c-4,5.8-3.3,14-2.8,20.7
		c1.5,19.7,5.4,38.8,5.3,58.7c5.1-8.5,3.4-21.6,2.7-31c-0.7-10.3-2.1-20.7-1.5-31c0.3-5.3,5-26.6,14-19.3c3.7,3,8.8,3.4,13.4,3.4
		c4.3,0,11.8,0.4,15.3-2.3c5.1-4.1,9.1-10,15.6-5c9.8,7.6,7.7,23.2,7.8,34.1c0.1,13.6-0.1,27.7,4.2,40.8c0.9-29.5,2.6-51.4,3.3-65.4
		C172.6,39.8,159.3,34.4,152.2,32.3"/>
	<path class="st27" d="M168.9,141c-0.2-0.7-0.4-2.9-0.4-6.1c-0.6,1.8-1.6,3.4-3.6,4.7c3.8,1.9,6.1,5.6,5.5,9
		C173.8,146.6,168.9,141,168.9,141"/>
	<path class="st27" d="M161.1,138.6c-18-6.5-38.4-8.4-55.7,1.1c1.6,3.1,1.6,7,0.3,10.4c0.2-0.1,0.5-0.1,0.7-0.2
		c5.2-2.1-1.4-5.2,1.6-9.1c3.1-3.9,18.9-5.4,35.4-4.1c16.4,1.3,14.7,3.4,14.6,8c0,3.1,1.3,4.7,4.5,5.1
		C159.7,146.9,158.7,142.4,161.1,138.6"/>
	<path class="st27" d="M100.5,143.4c-4-1.5-2.4-6.4-3.4-9.3c-0.1,5.4-0.3,9-0.3,9c-3.8,3.4-3.2,5.5-1,6.6
		C95.4,146.3,96.9,144.5,100.5,143.4"/>
	<path class="st28" d="M103.5,85.1c0,2.4,1.9,4.4,4.3,4.4c2.4,0,4.4-1.9,4.4-4.3c0-2.4-1.9-4.4-4.3-4.4
		C105.5,80.8,103.5,82.7,103.5,85.1"/>
	<path class="st7" d="M104.9,85.4c0,1.8,1.5,3.4,3.3,3.4c1.8,0,3.4-1.5,3.4-3.3c0-1.8-1.5-3.4-3.3-3.4
		C106.5,82.1,104.9,83.6,104.9,85.4"/>
	<path class="st8" d="M106.1,85.5c0,1.2,1,2.2,2.2,2.2c1.2,0,2.2-1,2.2-2.2s-1-2.2-2.2-2.2C107.1,83.3,106.1,84.2,106.1,85.5"/>
	<path class="st9" d="M106,86.8c0,0.6,0.5,1.1,1.1,1.1c0.6,0,1.1-0.5,1.1-1.1c0-0.6-0.5-1.1-1.1-1.1C106.5,85.7,106,86.2,106,86.8"
		/>
	<path class="st28" d="M162.3,84.4c0,2.4-2,4.3-4.4,4.3c-2.4,0-4.3-2-4.3-4.4c0-2.4,2-4.3,4.4-4.3C160.4,80,162.3,82,162.3,84.4"/>
	<path class="st7" d="M160.8,84.7c0,1.9-1.5,3.3-3.4,3.3c-1.8,0-3.3-1.5-3.3-3.4c0-1.9,1.5-3.3,3.4-3.3
		C159.4,81.3,160.8,82.8,160.8,84.7"/>
	<path class="st8" d="M159.7,84.6c0,1.2-1,2.2-2.2,2.2c-1.2,0-2.2-1-2.2-2.2c0-1.2,1-2.2,2.2-2.2C158.7,82.4,159.7,83.4,159.7,84.6"
		/>
	<path class="st9" d="M157,85.8c0,0.6-0.5,1.1-1.1,1.1c-0.6,0-1.1-0.5-1.1-1.1s0.5-1.1,1.1-1.1C156.6,84.8,157,85.2,157,85.8"/>
	<path class="st28" d="M138.6,63.5c0,2.4-2,4.3-4.4,4.3c-2.4,0-4.3-2-4.3-4.4c0-2.4,2-4.3,4.4-4.3C136.8,59.2,138.7,61.1,138.6,63.5
		"/>
	<path class="st7" d="M137.2,63.8c0,1.8-1.5,3.3-3.4,3.3s-3.3-1.5-3.3-3.4c0-1.9,1.5-3.3,3.4-3.3C135.7,60.4,137.2,61.9,137.2,63.8"
		/>
	<path class="st8" d="M136,63.8c0,1.2-1,2.2-2.2,2.2c-1.2,0-2.2-1-2.2-2.2c0-1.2,1-2.2,2.2-2.2S136.1,62.6,136,63.8"/>
	<path class="st9" d="M133.4,65c0,0.6-0.5,1.1-1.1,1.1s-1.1-0.5-1.1-1.1s0.5-1.1,1.1-1.1S133.4,64.4,133.4,65"/>
	<path class="st7" d="M104.8,66.1c-3.2,0.8-4.8,3.7-4.8,3.8l2.6,1.4c0,0,1.1-1.9,3-2.3c1.3-0.3,2.7,0,4.3,1.1l1.6-2.5
		C109.2,66,107,65.5,104.8,66.1"/>
	<path class="st7" d="M132.9,46.5c-3.3,0.2-5.3,2.8-5.4,2.9l2.3,1.9c0,0,1.4-1.6,3.3-1.8c1.3-0.1,2.7,0.5,4,1.8l2.1-2.2
		C137.2,47.2,135.1,46.3,132.9,46.5"/>
	<path class="st7" d="M158.2,63c-3.3,0.2-5.3,2.8-5.4,2.9l2.3,1.9c0,0,1.4-1.7,3.3-1.8c1.3-0.1,2.7,0.5,4,1.8l2.1-2.2
		C162.5,63.7,160.4,62.8,158.2,63"/>
	<path class="st29" d="M112,95.4c0,0,11.6,5.4,22.4,4s20.4-5.6,20.4-5.6s-8.8,21.5-20.6,22.1C122.3,116.5,113.8,104.8,112,95.4"/>
	<path class="st30" d="M125.8,111.7c5.5-0.9,10.4-2.7,15.8-0.8c0.7-3.6,0.4-8.1-3-11c-1.4,0.3-2.8,0.5-4.2,0.7c-2.5,0.3-5,0.3-7.4,0
		C124.9,103.5,124.6,108,125.8,111.7"/>
	<path class="st31" d="M122,110.9c3.3,2.9,7.4,4.8,12.1,4.5c4.1-0.2,7.7-3.1,10.7-6.6C137.9,104.4,127.3,104.5,122,110.9"/>
	<path class="st20" d="M114.5,97.4c0,0,3.1,10.4,4.6,10.4c1.5,0,1.7-5.5,1.7-5.5s4.2,2.5,11.4,2.3c7.2-0.2,11.6-3.6,11.6-3.6
		s1.5,5.5,2.8,5.3s3.9-6.9,3.8-10.1C150.5,96.2,130.3,104.8,114.5,97.4"/>
	<path class="st21" d="M120.2,102.2c0,0-1.6-2.9-3.2-2.8c-1.6,0.1,1.1,7.8,2,7.5C120.1,106.6,120.2,102.2,120.2,102.2"/>
	<path class="st21" d="M121.3,102l-0.1-1.6c0,0,14.6,2.3,22.5-1.2l0,1.4C143.7,100.6,134.5,107.2,121.3,102"/>
	<path class="st21" d="M144.4,100.7c0,0,1.6-2.5,3.4-2.4c1.8,0-0.1,7.6-1.2,7.4C145.6,105.5,144.4,100.7,144.4,100.7"/>
	<path class="st14" d="M152.6,125.3c-2.4-3.1-13.2-5.6-27.6-1.9c-14.4,3.7-11.4,7.1-9.7,10.8c0.7,1.4,0.8,2.5,0.6,3.4
		c6.8-1.4,17.1-1.7,27.6-0.9c2.7,0.2,4.8,0.4,6.6,0.7C148.6,133.6,154.7,128.1,152.6,125.3"/>
	<path class="st32" d="M149.9,135.2c0-0.1-23.1-3.6-34.2,0.2c0.1,0.7,0.2,1.5,0.1,2c6.8-1.4,32.4-0.4,34.2-0.2
		C149.8,136.7,149.8,136,149.9,135.2"/>
	<path class="st14" d="M98.4,139c0.2,2.1,1,3.2,2.8,2.4c1.8-0.8,0.2-3-0.7-5C99.5,134.3,97.9,134.6,98.4,139"/>
	<path class="st14" d="M96.6,147.9c-0.6,1.6,2.3-0.1,4.9-0.3c2.6-0.2,5-0.1,4.4-1.2C105.4,145.3,98.5,142.9,96.6,147.9"/>
	<path class="st14" d="M160.5,145.1c-0.6,1.2,3.2-0.6,5.3-0.1c2.1,0.5,4.4,0.5,3-1C167.4,142.5,162.7,140.9,160.5,145.1"/>
	<path class="st14" d="M163.7,135.5c-1.3,0.7-1.4,2.8,0.6,2.9c1.9,0.1,5-4.3,3.6-5.3C166.4,132,165.8,134.4,163.7,135.5"/>
	<path class="st33" d="M120.8,95.7c0,0,13.1,4,23.6-1.1C144.3,94.7,134.4,102,120.8,95.7"/>
	<path class="st33" d="M137.3,117c-3,1.9-6.7,0.2-6.7,0.1c-0.4-0.2-0.8,0-1,0.3c-0.2,0.4,0,0.8,0.3,1c0.2,0.1,4.5,2.2,8.2-0.2
		c0.3-0.2,0.4-0.7,0.2-1C138.1,116.9,137.7,116.8,137.3,117"/>
	<path class="st28" d="M108.4,127.6c0,0.8-1.1,1.4-2.3,1.4c-1.3,0-2.3-0.7-2.3-1.4c0-0.8,1.1-1.4,2.3-1.4
		C107.4,126.2,108.4,126.9,108.4,127.6"/>
	<path class="st28" d="M111.6,132.5c-0.1,0.5-0.8,0.6-1.6,0.4s-1.2-0.8-1.1-1.2s0.8-0.6,1.6-0.4C111.2,131.5,111.7,132,111.6,132.5"
		/>
	<path class="st28" d="M100.8,125.5c0.1,0.3-0.2,0.6-0.7,0.8s-0.9,0-1-0.3c-0.1-0.3,0.2-0.6,0.7-0.8S100.7,125.3,100.8,125.5"/>
	<path class="st28" d="M112.2,125.1c-0.1,0.3-0.5,0.4-1,0.3s-0.8-0.4-0.8-0.7c0.1-0.3,0.5-0.4,1-0.3
		C111.9,124.5,112.2,124.8,112.2,125.1"/>
	<path class="st28" d="M157.9,129c0,0.8,1,1.4,2.3,1.4c1.3,0,2.3-0.6,2.3-1.4c0-0.8-1-1.4-2.3-1.4S157.9,128.2,157.9,129"/>
	<path class="st28" d="M154.6,133.7c0.1,0.5,0.8,0.7,1.6,0.5c0.8-0.2,1.3-0.7,1.1-1.2s-0.8-0.7-1.6-0.5S154.5,133.3,154.6,133.7"/>
	<path class="st28" d="M165.6,127.1c-0.1,0.3,0.2,0.6,0.7,0.8c0.5,0.2,0.9,0,1-0.3c0.1-0.3-0.2-0.6-0.7-0.8
		C166.2,126.7,165.7,126.8,165.6,127.1"/>
	<path class="st28" d="M154.2,126.4c0.1,0.3,0.5,0.5,1,0.4s0.8-0.4,0.8-0.7c-0.1-0.3-0.5-0.5-1-0.4
		C154.5,125.8,154.2,126.1,154.2,126.4"/>
	<path class="st34" d="M128.5,35l-9.2,3.8c0,0,3.6,6.8,14,6.3c10.4-0.5,12.4-7.3,12.4-7.3l-6-3.9L128.5,35"/>
	<g>
		<defs>
			<rect id="SVGID_5_" x="120" y="8.2" width="25" height="36.5"/>
		</defs>
		<clipPath id="SVGID_6_">
			<use xlink:href="#SVGID_5_"  style="overflow:visible;"/>
		</clipPath>
		<g class="st35">
			<path class="st36" d="M120.9,38.9c0,0.3,2.5,5.9,12.2,5.5c9.7-0.4,11-6.4,11-6.4L132.3,8.2L120.9,38.9"/>
		</g>
	</g>
	<path class="st21" d="M125.8,43.3c1.8,0.7,4.2,1.3,7.3,1.1c2.2-0.1,4-0.5,5.5-1l-6.5-34L125.8,43.3"/>
	<path class="st37" d="M142.8,35.1c0.4,0.1-3.3,4.8-10.1,5.1c-7,0.2-10.1-5.5-9.8-5.3c0.1-0.4,3.3,4.8,9.7,4.5
		C139.1,39.1,142.8,35,142.8,35.1"/>
	<path class="st37" d="M139.7,28c0.3,0-2.4,3.4-7.1,3.6c-5,0.2-7.2-3.9-6.9-3.8c0-0.2,2.4,3.4,6.9,3.2C137,30.8,139.6,27.9,139.7,28
		"/>
	<path class="st37" d="M137.3,21.4c0.2,0-1.5,2.3-4.6,2.5c-3.3,0.2-4.8-2.4-4.6-2.3c0-0.2,1.6,2.2,4.6,1.9
		C135.7,23.3,137.3,21.3,137.3,21.4"/>
	<path class="st37" d="M135.5,16.4c0.1,0-1,1.5-3.1,1.6c-2.1,0.1-3.1-1.7-3-1.6c0-0.1,1,1.5,3,1.4C134.3,17.6,135.5,16.4,135.5,16.4
		"/>
	<path class="st25" d="M66.5,121.4c0,0,3.8,6,5,9.7c1.1,3.7,1.3,7,3.4,11.2c0,0-1.4,3-0.8,5.9c0,0,1.8,1.2,6.4,1.4
		c4.6,0.2,5.3-2.3,5.3-2.3s-1-4.2-4.3-4.6c-3.4-0.4-4.7-1.4-4.7-1.4s-2.9-8.5-2.9-11.6C73.9,126.7,74.3,112.7,66.5,121.4"/>
	<path class="st26" d="M75.4,146c-1.3,1.3,2.5,2.5,4.3,2.7c1.9,0.2,2.2-4.4,3.3-4.5c1.1-0.1-0.5-0.9-3.5-1.2c-3-0.3-3-0.9-3.8-3.2
		c-0.8-2.3-1.4-1.4-0.6,1C75.8,143.3,76.8,144.7,75.4,146"/>
	<path class="st38" d="M96.5,97.6c0-1.8-1.2-3.3-2.9-3.7c1.6-0.4,2.9-1.9,2.9-3.6c0-1.5-0.9-2.8-2.1-3.4c0.9-0.8,1.6-1.9,1.6-3.2
		c0-1.5-0.8-2.8-2-3.6c0.6-0.7,1-1.7,1-2.7c0-2.5-1.9-4.5-4.4-4.5c0,0,0,0-0.1,0c0-0.2,0.1-0.4,0.1-0.7c0-1.7-1.2-3.2-2.9-3.5
		c0-0.2,0.1-0.5,0.1-0.8c0-2.3-1.8-4.1-4.1-4.2c-0.4,0-0.8,0.1-1.1,0.2c-0.3-2.1-2.1-3.8-4.3-3.8c-0.4,0-0.7,0-1,0.1
		c0-0.1,0-0.2,0-0.4c0-2.2-1.8-4.1-4-4.1c-0.9,0-1.7,0.3-2.4,0.8c-0.7-0.9-1.9-1.6-3.1-1.6c-1.2,0-2.3,0.5-3.1,1.4
		c-0.9-1.2-2.3-2-3.8-2c-1.2,0-2.3,0.4-3.2,1.2c-0.8-1-2.1-1.6-3.4-1.6c-0.9,0-1.8,0.3-2.5,0.7c-0.3-0.1-0.7-0.1-1.1-0.1
		c-1.6,0-3.1,0.8-3.9,2.1c-0.8-0.5-1.8-0.7-2.8-0.7c-2.9,0-5.4,2.1-5.9,4.8c-0.5-0.1-1-0.2-1.5-0.2c-3.2,0-5.9,2.6-5.9,5.8
		c0,0.1,0,0.3,0,0.4c0,0,0,0,0,0c-3,0-5.5,2.4-5.6,5.4c0,1.2,0.4,2.3,1,3.2c-1.2,0.2-2.1,1.3-2.1,2.5c0,0.5,0.1,1,0.4,1.4
		c-0.9,0.4-1.5,1.3-1.5,2.4c0,0.9,0.5,1.8,1.2,2.3c-1.8,0.2-3.3,1.7-3.3,3.6c0,1,0.4,2,1.1,2.7c-1.7,0.1-3,1.5-3,3.2
		c0,1.1,0.6,2.2,1.4,2.7c-1,0.6-1.8,1.7-1.8,3c0,1.9,1.5,3.5,3.5,3.6c0.1,0,0.1,0,0.2,0c-0.7,0.8-1.1,1.8-1.1,2.9
		c0,2,1.3,3.7,3.1,4.3c-0.5,0.7-0.8,1.5-0.9,2.4c0,2.2,1.8,4.1,4,4.1c0.9,0,1.7-0.3,2.3-0.7c0.3,1.7,1.8,3,3.6,3.1
		c0,0.2-0.1,0.4-0.1,0.5c0,2,1.6,3.7,3.6,3.7c1.3,0,2.4-0.6,3.1-1.6c0.5,1.9,2.2,3.3,4.2,3.3c1.1,0,2.1-0.4,2.9-1.1
		c0.6,1.6,2.1,2.7,3.9,2.7c1.6,0,3-0.9,3.7-2.2c0.7,1.2,2,2,3.5,2.1c1.3,0,2.5-0.6,3.3-1.6c0.7,1.3,2,2.2,3.5,2.2
		c1.3,0,2.5-0.6,3.3-1.6c0.2,0.1,0.5,0.1,0.8,0.1c1.9,0,3.4-1.5,3.4-3.4c0-0.4-0.1-0.7-0.2-1.1c0.5,0.3,1.1,0.5,1.7,0.6
		c1.7,0,3.2-1.4,3.2-3.1c0,0,0-0.1,0-0.1c0.5,0.4,1.1,0.6,1.8,0.6c1.7,0,3.1-1.4,3.2-3.1c0-0.2,0-0.3,0-0.5c0.6,0.5,1.4,0.8,2.3,0.8
		c2.1,0,3.8-1.6,3.8-3.7c0-0.5-0.1-1-0.3-1.4c0,0,0,0,0,0c1.6,0,2.9-1.2,2.9-2.8c0-0.8-0.3-1.4-0.7-1.9c0.2,0.1,0.5,0.1,0.8,0.1
		c1.7,0,3.2-1.4,3.2-3.1c0-0.6-0.2-1.2-0.4-1.6C95.2,101,96.5,99.4,96.5,97.6"/>
	<path class="st39" d="M79.6,107.1c1,0,1.9-0.5,2.4-1.3c-1,0.5-2.1,0.8-3.2,1.2C79.1,107,79.3,107.1,79.6,107.1"/>
	<path class="st40" d="M91.9,94.2c0-1.5-1-2.7-2.4-3c1.3-0.3,2.3-1.5,2.4-3c0-1.2-0.7-2.3-1.8-2.8c0.8-0.6,1.3-1.5,1.3-2.6
		c0-1.2-0.6-2.3-1.6-2.9c0.5-0.6,0.8-1.4,0.8-2.2c0-2-1.6-3.6-3.6-3.7c0,0,0,0-0.1,0c0-0.2,0.1-0.4,0.1-0.5c0-1.4-1-2.6-2.4-2.9
		c0-0.2,0.1-0.4,0.1-0.6c0-1.9-1.5-3.4-3.3-3.4c-0.3,0-0.6,0.1-0.9,0.1c-0.2-1.7-1.7-3.1-3.5-3.1c-0.3,0-0.6,0-0.8,0.1
		c0-0.1,0-0.2,0-0.3c0-1.8-1.4-3.3-3.3-3.4c-0.7,0-1.4,0.2-2,0.6c-0.6-0.8-1.5-1.3-2.6-1.3c-1,0-1.9,0.4-2.5,1.2
		c-0.7-1-1.8-1.6-3.1-1.6c-1,0-1.9,0.4-2.6,1c-0.7-0.8-1.7-1.3-2.8-1.3c-0.8,0-1.5,0.2-2.1,0.6C55,59,54.7,59,54.4,59
		c-1.3,0-2.5,0.7-3.2,1.7c-0.7-0.4-1.4-0.6-2.3-0.6c-2.4,0-4.4,1.7-4.8,4c-0.4-0.1-0.8-0.2-1.2-0.2c-2.7,0-4.8,2.1-4.9,4.7
		c0,0.1,0,0.2,0,0.3c0,0,0,0,0,0c-2.5,0-4.5,1.9-4.5,4.4c0,1,0.3,1.9,0.8,2.6c-1,0.2-1.7,1-1.7,2.1c0,0.4,0.1,0.8,0.3,1.1
		c-0.7,0.4-1.2,1.1-1.2,1.9c0,0.8,0.4,1.4,0.9,1.9c-1.5,0.1-2.7,1.4-2.7,2.9c0,0.8,0.3,1.6,0.9,2.2c-1.4,0.1-2.4,1.2-2.5,2.6
		c0,0.9,0.5,1.8,1.2,2.2c-0.9,0.5-1.4,1.4-1.4,2.5c0,1.6,1.3,2.9,2.8,2.9c0.1,0,0.1,0,0.1,0c-0.6,0.6-0.9,1.4-0.9,2.4
		c0,1.6,1.1,3,2.6,3.5c-0.4,0.6-0.7,1.2-0.7,2c0,1.8,1.4,3.3,3.3,3.3c0.7,0,1.4-0.2,1.9-0.6c0.3,1.4,1.5,2.4,2.9,2.5
		c0,0.1,0,0.3,0,0.4c0,1.7,1.3,3,2.9,3c1,0,2-0.5,2.5-1.3c0.4,1.5,1.8,2.7,3.4,2.7c0.9,0,1.7-0.3,2.4-0.9c0.5,1.3,1.7,2.2,3.1,2.2
		c1.3,0,2.5-0.7,3-1.8c0.6,1,1.6,1.7,2.8,1.7c1.1,0,2-0.5,2.7-1.3c0.5,1.1,1.6,1.8,2.9,1.8c1.1,0,2.1-0.5,2.7-1.3
		c0.2,0.1,0.4,0.1,0.6,0.1c1.5,0,2.8-1.2,2.8-2.7c0-0.3-0.1-0.6-0.1-0.9c0.4,0.3,0.9,0.4,1.4,0.5c1.4,0,2.6-1.1,2.6-2.5
		c0,0,0,0,0-0.1c0.4,0.3,0.9,0.5,1.5,0.5c1.4,0,2.6-1.1,2.6-2.5c0-0.1,0-0.3,0-0.4c0.5,0.4,1.1,0.6,1.8,0.7c1.7,0,3.1-1.3,3.1-3.1
		c0-0.4-0.1-0.8-0.2-1.2c0,0,0,0,0,0c1.3,0,2.4-1,2.4-2.3c0-0.6-0.2-1.2-0.6-1.6c0.2,0.1,0.4,0.1,0.6,0.1c1.4,0,2.6-1.1,2.6-2.5
		c0-0.5-0.1-1-0.4-1.3C90.8,97,91.9,95.7,91.9,94.2"/>
	<path class="st25" d="M84.9,93.3c0-1.1-0.7-2-1.7-2.2c1-0.2,1.7-1.1,1.7-2.1c0-0.9-0.5-1.7-1.3-2c0.6-0.4,0.9-1.1,0.9-1.9
		c0-0.9-0.5-1.7-1.2-2.1c0.4-0.4,0.6-1,0.6-1.6c0-1.4-1.1-2.6-2.6-2.7c0,0,0,0,0,0c0-0.1,0-0.3,0-0.4c0-1-0.7-1.9-1.7-2.1
		c0-0.1,0.1-0.3,0.1-0.4c0-1.3-1.1-2.4-2.4-2.5c-0.2,0-0.4,0-0.7,0.1c-0.2-1.3-1.2-2.2-2.5-2.2c-0.2,0-0.4,0-0.6,0.1
		c0-0.1,0-0.1,0-0.2c0-1.3-1-2.4-2.4-2.4c-0.5,0-1,0.2-1.4,0.4c-0.4-0.6-1.1-0.9-1.8-0.9c-0.7,0-1.4,0.3-1.8,0.8
		c-0.5-0.7-1.3-1.2-2.3-1.2c-0.7,0-1.4,0.3-1.9,0.7c-0.5-0.6-1.2-1-2-1c-0.5,0-1.1,0.2-1.5,0.4c-0.2-0.1-0.4-0.1-0.6-0.1
		c-1,0-1.8,0.5-2.3,1.2c-0.5-0.3-1.1-0.4-1.6-0.4c-1.7,0-3.2,1.2-3.5,2.9c-0.3-0.1-0.6-0.1-0.9-0.1c-1.9,0-3.5,1.5-3.5,3.4
		c0,0.1,0,0.2,0,0.2c0,0,0,0,0,0c-1.8,0-3.3,1.4-3.3,3.2c0,0.7,0.2,1.4,0.6,1.9c-0.7,0.1-1.2,0.7-1.2,1.5c0,0.3,0.1,0.6,0.2,0.8
		c-0.5,0.3-0.9,0.8-0.9,1.4c0,0.6,0.3,1,0.7,1.3c-1.1,0.1-2,1-2,2.1c0,0.6,0.2,1.2,0.7,1.6c-1,0.1-1.8,0.9-1.8,1.9
		c0,0.7,0.3,1.3,0.9,1.6c-0.6,0.4-1,1-1,1.8c0,1.1,0.9,2.1,2.1,2.1c0,0,0.1,0,0.1,0c-0.4,0.5-0.7,1-0.7,1.7c0,1.2,0.8,2.2,1.8,2.5
		c-0.3,0.4-0.5,0.9-0.5,1.4c0,1.3,1,2.4,2.4,2.4c0.5,0,1-0.2,1.4-0.4c0.2,1,1.1,1.8,2.1,1.8c0,0.1,0,0.2,0,0.3
		c0,1.2,0.9,2.2,2.1,2.2c0.8,0,1.4-0.4,1.8-1c0.3,1.1,1.3,1.9,2.5,1.9c0.7,0,1.3-0.2,1.7-0.6c0.3,0.9,1.2,1.6,2.3,1.6
		c1,0,1.8-0.5,2.2-1.3c0.4,0.7,1.2,1.2,2,1.2c0.8,0,1.5-0.4,1.9-0.9c0.4,0.8,1.2,1.3,2.1,1.3c0.8,0,1.5-0.4,1.9-1
		c0.1,0,0.3,0.1,0.5,0.1c1.1,0,2-0.9,2-2c0-0.2,0-0.4-0.1-0.6c0.3,0.2,0.6,0.3,1,0.3c1,0,1.9-0.8,1.9-1.8c0,0,0,0,0-0.1
		c0.3,0.2,0.7,0.4,1.1,0.4c1,0,1.9-0.8,1.9-1.8c0-0.1,0-0.2,0-0.3c0.4,0.3,0.8,0.5,1.3,0.5c1.2,0,2.2-1,2.3-2.2
		c0-0.3-0.1-0.6-0.2-0.9c0,0,0,0,0,0c0.9,0,1.7-0.7,1.7-1.7c0-0.4-0.2-0.8-0.4-1.1c0.1,0,0.3,0.1,0.4,0.1c1,0,1.9-0.8,1.9-1.8
		c0-0.4-0.1-0.7-0.3-1C84.1,95.3,84.9,94.4,84.9,93.3"/>
	<path class="st41" d="M56,94.8c0,2.4-2,4.3-4.4,4.3c-2.4,0-4.3-2-4.3-4.4c0-2.4,2-4.3,4.4-4.3C54.1,90.5,56,92.4,56,94.8"/>
	<path class="st7" d="M54.5,95.1c0,1.9-1.5,3.3-3.4,3.3c-1.9,0-3.3-1.5-3.3-3.4s1.5-3.3,3.4-3.3C53.1,91.7,54.6,93.2,54.5,95.1"/>
	<path class="st42" d="M53.5,95c0,1.1-1,2.1-2.1,2.1c-1.1,0-2.1-1-2.1-2.1c0-1.1,1-2.1,2.1-2.1C52.6,92.9,53.5,93.9,53.5,95"/>
	<path class="st9" d="M51.4,96.6c0,0.6-0.5,1.1-1.1,1.1c-0.6,0-1.1-0.5-1.1-1.1c0-0.6,0.5-1.1,1.1-1.1C51,95.5,51.5,96,51.4,96.6"/>
	<path class="st41" d="M80.6,92.3c0,2.4-2,4.3-4.4,4.3c-2.4,0-4.3-2-4.3-4.4c0-2.4,2-4.3,4.4-4.3C78.7,87.9,80.6,89.9,80.6,92.3"/>
	<path class="st7" d="M79.1,92.5c0,1.9-1.5,3.3-3.4,3.3c-1.9,0-3.3-1.5-3.3-3.4c0-1.8,1.5-3.3,3.4-3.3
		C77.7,89.1,79.1,90.7,79.1,92.5"/>
	<path class="st42" d="M78.1,92.5c0,1.3-1.1,2.3-2.3,2.3s-2.3-1.1-2.3-2.3c0-1.3,1.1-2.3,2.3-2.3C77.1,90.2,78.1,91.2,78.1,92.5"/>
	<path class="st9" d="M75.6,93.8c0,0.6-0.5,1-1,1c-0.5,0-1-0.5-1-1c0-0.6,0.5-1,1-1C75.2,92.8,75.6,93.2,75.6,93.8"/>
	<path class="st43" d="M69.6,100.3c0,0-1.4,2.5-4,2.7c-2.6,0.2-3.5-2-3.6-2.1c-0.1-0.2-0.3-0.3-0.5-0.2c-0.2,0.1-0.3,0.3-0.2,0.5
		c0,0,1.2,2.8,4.3,2.5c3-0.3,4.5-3,4.6-3.1c0.1-0.2,0-0.4-0.2-0.5C69.9,100.1,69.7,100.2,69.6,100.3"/>
	<path class="st44" d="M63.5,105c-0.1,0.8,2.2,1.6,2.5,0.5C66.2,104.5,63.6,104.4,63.5,105"/>
	<path class="st45" d="M63.6,100.7c0,0,1.2,0.5,2.6,0.4c1.5-0.2,3.2-1.3,2.3-1.6C67.6,99.2,65,100.7,63.6,100.7"/>
	<path class="st45" d="M62.9,106.3c0,0,3.2,2.6,6.2-1.1C69.1,105.2,66.9,111,62.9,106.3"/>
	<path class="st46" d="M44,90.1c0,0,3.1-6,11-4.1l0.6-2.3c0,0-7.3-3-12.3,5.2L44,90.1"/>
	<path class="st46" d="M81.7,86.6c0,0-3.9-5.6-11.5-2.5l-0.9-2.2c0,0,6.8-4,12.9,3.5L81.7,86.6"/>
	<path class="st25" d="M28.6,102.7c0,0-10.2-3.4-17.2-7.4c-7-4-11.3-9.5-5.9-13.2c5.4-3.8,3.1,3,5.2,3c2.2,0,2-2.5,3.9,2.6
		c1.9,5.1,7.7,9.9,10.8,11.1C28.5,99.9,31.4,101.8,28.6,102.7"/>
	<path class="st26" d="M4.8,88.2c-0.5-1.2,0-3.4,2.3-2.7c2.3,0.7,3.4,2.2,5.5,2.5c2,0.3,2.7,1.7,1.5,3.2c-1.2,1.5,4.3,5.2,1.8,5.3
		C13.3,96.5,5.8,90.6,4.8,88.2"/>
	<path class="st25" d="M45.6,122.2c0,0,4.4-2.3,4.9,2.6c0,0-4.2,6.7-4.1,13s0.8,7.6,3.1,7.3c2.4-0.3,5,2.6,4.5,5
		c-0.5,2.4-6.1,3.5-10.5,0.2c0,0-0.5-2.4,0.6-6.8C45.2,139.2,44.1,135.1,45.6,122.2"/>
	<path class="st26" d="M46.3,149c1.1,2.1,3,0.3,4.3-0.6s3,1.7,3,1.7s-1.9-4.9-4-4.1c-2,0.9-2.7-1.4-3.3-3.3
		C45.6,140.9,44.7,146.1,46.3,149"/>
	<path class="st25" d="M53.1,53c-3.3,4.7-4.2,15.6-4.2,15.6l1-0.4c1.1-5.6,4.4-9.7,7.8-14.4S56.4,48.3,53.1,53"/>
	<path class="st26" d="M51.2,61.6c0.1,1,3.2-4.9,4.6-7c1.4-2.2,0.9-3.5-1-1.6S50.8,59.2,51.2,61.6"/>
	<path class="st25" d="M72.6,53.7c-2.8,4-3.5,13.2-3.5,13.2l0.9-0.3c0.9-4.8,3.7-8.2,6.5-12.2S75.4,49.7,72.6,53.7"/>
	<path class="st26" d="M71,61c0.1,0.9,2.7-4.1,3.9-5.9c1.2-1.8,0.8-2.9-0.9-1.3C72.4,55.3,70.7,58.9,71,61"/>
	<path class="st2" d="M242.5,62.2c0,0-3.1,0.4-7.4-2.3c-4.3-2.7-4.5-2.7-4.9,3.5c-0.4,6.2,0.4,2.7,4.5,2.1c4.1-0.6,8.9,1.2,8.9,1.2
		L242.5,62.2"/>
	<path class="st47" d="M232.5,59.3c-1.1-0.3-2.6,6.3-1.3,6C232.5,65.1,233.7,59.7,232.5,59.3"/>
	<path class="st2" d="M289.5,62.2c0,0,3.1,0.4,7.4-2.3c4.3-2.7,4.5-2.7,4.9,3.5c0.4,6.2-0.4,2.7-4.5,2.1c-4.1-0.6-8.9,1.2-8.9,1.2
		L289.5,62.2"/>
	<path class="st47" d="M299.6,59.3c1.1-0.3,2.6,6.3,1.3,6S298.3,59.7,299.6,59.3"/>
	<path class="st47" d="M295.5,145.7c-1.4-3.2-5.1-1.9-13.7-7s-6.1-9.2-5.9-26.5c0.2-17.3-1.5-30-1.5-30h-14.1c0,0-1.7,12.7-1.5,30
		c0.2,17.3,2.7,21.4-5.9,26.5s-12.4,3.7-13.7,7c-1.4,3.2,2.2,4.9,4.2,3.9c0,0,0,3.1,2.7,2.7c2.7-0.3,3.2-0.3,4.9-2
		c0,0-1,2.4,2.5,3.4c3.6,1,8.5,0.7,8.3-4.6c-0.2-5.3,4.1-3.7,3.7-8c-0.3-4.2-3.9-4.1-3.2-11.2c0.7-7.1-2-27.4,1-30.2
		c0.6-0.5,2.8-0.9,4-1.2c1.2,0.2,3.4,0.6,4,1.2c3.1,2.9,0.3,23.1,1,30.2c0.7,7.1-2.9,7-3.2,11.2c-0.3,4.2,3.9,2.7,3.7,8
		c-0.2,5.3,4.8,5.6,8.3,4.6c3.6-1,2.5-3.4,2.5-3.4c1.7,1.7,2.2,1.7,4.9,2c2.7,0.3,2.7-2.7,2.7-2.7
		C293.3,150.6,296.9,148.9,295.5,145.7"/>
	<path class="st2" d="M274.6,84.7c-0.2-1.6-0.3-2.5-0.3-2.5h-14.1c0,0-0.1,1-0.3,2.9C264.7,85.9,269.8,86,274.6,84.7"/>
	<path class="st48" d="M251.1,149.7c0,0,0.3-1.9,3.1-2.5c2.8-0.6,0.8-2-0.7-1.8c-1.4,0.3-3.5-1.4-5.3-1.2c0,0-1.2-1.8-3.6-1.1
		c0,0,1.5,0.4,1.8,1.6c0.3,1.2-2.2,1.7-2.5,4c0,0,1.1-2.6,3.6-3.1c2.6-0.6,6,0.2,4.9,1.1C251.4,147.5,250.7,148.2,251.1,149.7"/>
	<path class="st49" d="M251.5,150.6c-0.3,0.4,0.2,1.1,1.8,0.6c1.7-0.5,2.3,1.8,3.5,0.5S254.7,146.6,251.5,150.6"/>
	<path class="st49" d="M244.1,149c-0.2,0.3,0.1,0.8,1.5,0.4c1.3-0.4,1.8,1.4,2.8,0.4C249.4,148.8,246.6,145.8,244.1,149"/>
	<path class="st49" d="M239.6,145.5c-0.2,0.3,0.1,0.8,1.3,0.4c1.2-0.4,1.6,1.3,2.6,0.4C244.5,145.3,241.9,142.6,239.6,145.5"/>
	<path class="st48" d="M283.7,150c0,0-0.3-1.9-3.1-2.5c-2.8-0.6-0.8-2.1,0.7-1.8c1.4,0.3,3.5-1.4,5.3-1.2c0,0,1.2-1.8,3.6-1.1
		c0,0-1.5,0.4-1.8,1.6c-0.3,1.2,2.3,1.7,2.5,4c0,0-1.1-2.6-3.6-3.1c-2.6-0.6-6,0.2-4.9,1.1C283.3,147.8,284,148.5,283.7,150"/>
	<path class="st49" d="M283.3,150.9c0.3,0.4-0.2,1.1-1.8,0.6c-1.7-0.5-2.3,1.8-3.5,0.5C276.6,150.6,280.1,146.9,283.3,150.9"/>
	<path class="st49" d="M290.6,149.2c0.2,0.3-0.1,0.8-1.4,0.4s-1.8,1.4-2.8,0.4C285.4,149,288.1,146.1,290.6,149.2"/>
	<path class="st49" d="M295.1,145.7c0.2,0.3-0.1,0.8-1.3,0.4c-1.2-0.4-1.6,1.3-2.6,0.4C290.2,145.5,292.8,142.8,295.1,145.7"/>
	<path class="st50" d="M262.1,144.5c0,0,0.9-3.2,0.5-6c-0.4-2.8,2.6,0.3,2.4,2.6C264.9,143.3,262.1,144.5,262.1,144.5"/>
	<path class="st50" d="M272.8,144.3c0,0-0.9-3.2-0.5-6s-2.5,0.3-2.4,2.5C270,143.1,272.8,144.3,272.8,144.3"/>
	<path class="st47" d="M242,44.7c-3.3,2.5-3.3,8.1-0.3,18.6c3,10.5,4.1,18.4,11.2,19.1c7.1,0.7,27.6,2.1,31.2,0.3s7.6-17.6,10.2-26
		c2.6-8.4,1-11.9-5.1-13.3C276.5,40.5,249.2,39.2,242,44.7"/>
	<path class="st51" d="M278.8,57.7c0,2.4,1.9,4.3,4.3,4.3c2.4,0,4.3-1.9,4.3-4.3c0-2.4-1.9-4.3-4.3-4.3
		C280.7,53.3,278.8,55.3,278.8,57.7"/>
	<path class="st7" d="M279.2,57.7c0,1.9,1.5,3.3,3.4,3.3c1.8,0,3.3-1.5,3.3-3.3s-1.5-3.3-3.3-3.3C280.7,54.4,279.2,55.9,279.2,57.7"
		/>
	<path class="st8" d="M280.4,57.7c0,1.2,1,2.2,2.2,2.2s2.2-1,2.2-2.2s-1-2.2-2.2-2.2S280.4,56.5,280.4,57.7"/>
	<path class="st9" d="M280.3,59c0,0.6,0.5,1.1,1.1,1.1c0.6,0,1.1-0.5,1.1-1.1s-0.5-1.1-1.1-1.1C280.8,58,280.3,58.4,280.3,59"/>
	<path class="st51" d="M245.3,57.8c0,2.4,1.9,4.3,4.3,4.3c2.4,0,4.3-1.9,4.3-4.3s-1.9-4.3-4.3-4.3C247.2,53.4,245.3,55.4,245.3,57.8
		"/>
	<path class="st7" d="M246.7,58c0,1.9,1.5,3.4,3.4,3.4s3.4-1.5,3.4-3.4c0-1.8-1.5-3.3-3.4-3.3S246.7,56.2,246.7,58"/>
	<path class="st8" d="M247.9,58c0,1.2,1,2.2,2.2,2.2s2.2-1,2.2-2.2c0-1.2-1-2.2-2.2-2.2S247.9,56.8,247.9,58"/>
	<path class="st9" d="M247.8,59.4c0,0.6,0.5,1.1,1.1,1.1s1.1-0.5,1.1-1.1c0-0.6-0.5-1.1-1.1-1.1S247.8,58.8,247.8,59.4"/>
	<path class="st52" d="M259.6,64.6c0-1.7,4.4-1.5,8.2-1.5s7.5,0,7.6,2c0.1,2-2.7,15.1-7.7,15.4C262.7,80.8,259.6,74.1,259.6,64.6"/>
	<path class="st53" d="M264.9,75.8c0,0-2.6-4.7-0.5-5.8c2.1-1,5.6-0.8,5.8,0.6c0.1,1.4-0.8,4.9-0.8,4.9L264.9,75.8"/>
	<path class="st20" d="M260,64.5l0.7,2.3c0.5,0.3,1.7,0.4,1.7,0.4c0,0.5,1.2,1.3,1.2,1.3c1.8,0.4,4.2-0.1,4.2-0.1
		c0.5,0.4,3.3,0.2,4.1-0.1c0.8-0.3,0.9-1.3,0.9-1.3c0.7-0.1,1.9-0.3,1.9-0.3l0.3-2C267.4,62.6,260.2,64.4,260,64.5"/>
	<path class="st21" d="M262.4,66.9c0,0-0.6-2.4-1-2.4c-0.4-0.1-0.9,0.2-0.9,0.2l0.4,1.9C260.9,66.6,261.5,67.1,262.4,66.9"/>
	<path class="st21" d="M272.8,66.7c0,0,0.1-1.6,0.4-1.9c0.3-0.3,1.5,0.1,1.5,0.1l-0.4,1.6L272.8,66.7"/>
	<path class="st21" d="M266.8,64.1c-1.1-0.2-3.2-0.3-3.9,0.5c-0.4,0.4-0.2,1.3,0.1,2.4c0,0,0.3,1.1,1.1,1.2c0.8,0,3-0.1,3-0.1
		l0.7-0.8l0.5,0.8c0,0,2.2,0.3,3.2,0s1-0.7,1.1-1.7c0-0.3,0.2-1.2-0.1-1.6c-0.4-0.7-2.2-1-4.3-0.7c-0.3,0.1-0.2,0.3-0.6,0.4
		C267.6,64.5,267.5,64.2,266.8,64.1"/>
	<path class="st54" d="M262.5,76.2c0,0,2.1,3.8,4.8,3.5c2.7-0.3,4.3-3.4,4.3-3.4S268,71.1,262.5,76.2"/>
	<path class="st7" d="M247.3,47.6c-3.2,0.9-4.7,3.7-4.8,3.9l2.7,1.4c0,0,1-1.9,2.9-2.4c1.3-0.3,2.7,0,4.3,1L254,49
		C251.7,47.5,249.4,47,247.3,47.6"/>
	<path class="st7" d="M285.1,47.6c3.2,0.9,4.7,3.7,4.8,3.9l-2.7,1.4c0,0-1-1.9-2.9-2.4c-1.3-0.3-2.7,0-4.3,1l-1.6-2.5
		C280.8,47.5,283,47,285.1,47.6"/>
	<path class="st51" d="M256.9,38.4c0,0-2.5,7.1,2.6,7.1c5.1,0,11.8,0,13.5,2.8c1.7,2.8-6.4,3.9-6.6,0.9c0,0-1.2,1.6,2.6,3.3
		c3.8,1.7,7.3-2.3,7.3-2.3l-0.3,1.5c0,0,4.2-1.6,2.7-5.4C277.2,42.4,269.3,29.4,256.9,38.4"/>
	<path class="st55" d="M268.5,26.4c-13.8-0.5-16.1,16.2-16.1,16.2l9.3-4.7l10.3-0.5l10.9,4.5C282.8,42,283,26.9,268.5,26.4"/>
	<path class="st36" d="M257.2,39.6c0,0,0.6-8.8,2.4-10.8c1.8-2.1,8.9-7.2,17.3,0.1c0,0,2.3,10.3,1.6,10.9S268.8,34,257.2,39.6"/>
	<path class="st56" d="M252.4,42.4c0,0,1.7,5.1,3.6,4.5s5.6-9,12.3-8.7c6.7,0.3,8.8,9,11,9.2s3.6-5.5,3.6-5.5S268.1,28.3,252.4,42.4
		"/>
	<path class="st57" d="M268.2,35.4c1.2,0,4.8-7.6,3.8-8.6c-1.1-1-6.7-1.3-7.9,0S266.6,35.4,268.2,35.4"/>
</g>
</svg>
