<?xml version="1.0" encoding="UTF-8"?><svg xmlns="http://www.w3.org/2000/svg" xmlns:xlink="http://www.w3.org/1999/xlink" contentScriptType="text/ecmascript" width="375pt" zoomAndPan="magnify" contentStyleType="text/css" viewBox="0 0 375 374.999991" height="374.999991pt" preserveAspectRatio="xMidYMid meet" version="1.2"><defs><clipPath xml:id="clip1" id="clip1"><path d="M 162 213 L 183 213 L 183 254.765625 L 162 254.765625 Z M 162 213 "/></clipPath></defs><g xml:id="surface1" id="surface1"><rect x="0" width="375" y="0" height="374.999991" style="fill:rgb(100%,100%,100%);fill-opacity:1;stroke:none;"/><rect x="0" width="375" y="0" height="374.999991" style="fill:rgb(100%,100%,100%);fill-opacity:1;stroke:none;"/><rect x="0" width="375" y="0" height="374.999991" style="fill:rgb(100%,100%,100%);fill-opacity:1;stroke:none;"/><path style=" stroke:none;fill-rule:nonzero;fill:rgb(99.21875%,74.508667%,6.269836%);fill-opacity:1;" d="M 212.339844 144.359375 C 212.191406 143.472656 211.894531 142.640625 211.449219 141.859375 C 210.847656 142.765625 209.648438 143.40625 208.816406 144.046875 C 208.207031 144.515625 207.625 145.011719 207.070312 145.539062 C 206.085938 146.472656 205 147.273438 203.816406 147.9375 C 197.898438 151.035156 190.644531 150.875 184.144531 150.726562 C 177.574219 150.574219 171.246094 150.382812 164.941406 148.257812 C 159.78125 146.523438 155.089844 143.816406 150.515625 140.90625 C 150.585938 141.109375 150.605469 141.3125 150.585938 141.523438 C 150.5625 141.734375 150.5 141.929688 150.390625 142.109375 C 150.285156 142.292969 150.144531 142.445312 149.96875 142.5625 C 149.796875 142.683594 149.605469 142.761719 149.398438 142.796875 L 149.21875 142.839844 C 149.164062 144.027344 149.21875 145.210938 149.21875 146.199219 C 149.21875 147.125 149.257812 148.046875 149.273438 148.96875 C 149.273438 149.804688 149.226562 149.574219 149.894531 150.429688 C 150.839844 151.640625 151.914062 152.71875 153.113281 153.671875 C 155.734375 155.695312 158.625 157.195312 161.78125 158.175781 C 168.523438 160.34375 175.660156 160.972656 182.703125 161.148438 C 186.054688 161.238281 189.421875 161.289062 192.773438 161.210938 C 196.214844 161.132812 199.738281 160.851562 202.871094 159.28125 C 206.867188 157.261719 211.585938 152.105469 212.328125 147.039062 C 211.535156 146.402344 211.617188 145.082031 212.339844 144.359375 Z M 212.339844 144.359375 "/><path style=" stroke:none;fill-rule:nonzero;fill:rgb(6.269836%,70.979309%,72.158813%);fill-opacity:1;" d="M 194.832031 185.914062 C 178.828125 186.035156 162.824219 183.761719 147.230469 180.148438 C 139.144531 178.269531 130.746094 176.644531 123.003906 173.621094 C 122.625 173.472656 122.234375 173.316406 121.84375 173.15625 C 122.195312 173.476562 122.550781 173.761719 122.898438 174.058594 C 125.496094 176.285156 127.984375 178.609375 130.707031 180.695312 C 136.703125 185.292969 143.097656 189.324219 149.613281 193.128906 C 157.457031 197.710938 165.9375 203.574219 175.335938 203.730469 C 180.261719 203.816406 184.660156 202.277344 189.160156 200.417969 C 193.660156 198.558594 198.070312 196.378906 202.4375 194.175781 C 206.808594 191.972656 211.230469 189.703125 215.757812 187.757812 C 219.65625 186.082031 223.589844 184.496094 227.417969 182.660156 C 230.949219 181.003906 234.359375 179.132812 237.65625 177.046875 C 224.355469 183.398438 209.488281 185.800781 194.832031 185.914062 Z M 194.832031 185.914062 "/><path style=" stroke:none;fill-rule:nonzero;fill:rgb(99.21875%,74.508667%,6.269836%);fill-opacity:1;" d="M 130.871094 155.933594 C 130.117188 156.253906 129.460938 156.71875 128.902344 157.328125 C 128.34375 157.933594 127.933594 158.628906 127.671875 159.410156 C 128.882812 159.554688 130.09375 159.554688 131.308594 159.410156 C 132.269531 159.289062 134.828125 158.851562 134.972656 157.992188 C 135.347656 155.957031 132.34375 155.292969 130.871094 155.933594 Z M 130.871094 155.933594 "/><path style=" stroke:none;fill-rule:nonzero;fill:rgb(99.21875%,74.508667%,6.269836%);fill-opacity:1;" d="M 192.039062 228.726562 C 190.816406 227.761719 189.574219 226.765625 188.382812 225.695312 C 191.007812 232.550781 193.660156 239.394531 195.773438 246.429688 C 198.699219 243.960938 201.609375 241.472656 204.535156 239.007812 C 200.96875 234.972656 196.234375 232.011719 192.039062 228.726562 Z M 192.039062 228.726562 "/><path style=" stroke:none;fill-rule:nonzero;fill:rgb(99.21875%,74.508667%,6.269836%);fill-opacity:1;" d="M 136.59375 238.933594 C 138.871094 240.542969 141.308594 241.890625 143.722656 243.289062 C 147.542969 237.234375 149.960938 230.417969 152.921875 223.910156 C 147.488281 228.929688 141.519531 233.390625 136.59375 238.933594 Z M 136.59375 238.933594 "/><path style=" stroke:none;fill-rule:nonzero;fill:rgb(6.269836%,70.979309%,72.158813%);fill-opacity:1;" d="M 209.621094 136.808594 C 209.300781 135.84375 208.941406 134.878906 208.554688 133.914062 C 205.996094 127.554688 202.230469 121.414062 196.765625 117.183594 C 195.4375 116.148438 194.015625 115.25 192.507812 114.5 C 191 113.746094 189.429688 113.148438 187.800781 112.710938 C 186.175781 112.273438 184.519531 112 182.839844 111.894531 C 181.15625 111.789062 179.484375 111.851562 177.8125 112.082031 C 171.191406 112.972656 165.332031 116.265625 160.304688 120.625 C 155.917969 124.445312 151.09375 130 151.179688 136.195312 C 151.269531 136.46875 151.285156 136.746094 151.21875 137.023438 L 151.21875 137.136719 C 151.21875 137.15625 151.21875 137.175781 151.21875 137.191406 C 155.652344 140.046875 160.210938 142.839844 165.1875 144.636719 C 170.707031 146.632812 176.289062 147.023438 182.101562 147.164062 C 188.074219 147.308594 194.972656 147.855469 200.636719 145.558594 C 202.777344 144.6875 204.214844 143.199219 205.980469 141.789062 C 206.578125 141.320312 207.179688 140.863281 207.789062 140.40625 L 208.195312 140.085938 C 208.324219 139.917969 208.476562 139.777344 208.652344 139.664062 C 208.804688 139.554688 208.960938 139.453125 209.121094 139.359375 C 209.527344 139.15625 209.953125 139.078125 210.402344 139.125 C 210.289062 138.359375 209.847656 137.472656 209.621094 136.808594 Z M 209.621094 136.808594 "/><path style=" stroke:none;fill-rule:nonzero;fill:rgb(99.21875%,74.508667%,6.269836%);fill-opacity:1;" d="M 163.363281 167.578125 C 161.445312 166.199219 158.027344 168.667969 157.515625 170.710938 C 157.515625 170.765625 157.488281 170.8125 157.472656 170.863281 C 159.074219 171.71875 161.394531 172.421875 162.914062 171.109375 C 163.773438 170.371094 164.390625 168.3125 163.363281 167.578125 Z M 163.363281 167.578125 "/><path style=" stroke:none;fill-rule:nonzero;fill:rgb(99.21875%,74.508667%,6.269836%);fill-opacity:1;" d="M 177.910156 242.492188 C 175.703125 235.773438 172.207031 228.917969 171.023438 221.804688 C 169.851562 225.921875 169.21875 230.230469 168.648438 234.433594 C 167.875 240.15625 167.34375 245.9375 166.261719 251.617188 C 169.382812 251.617188 172.597656 251.5625 175.578125 250.832031 C 177.050781 250.472656 178.59375 250.011719 178.839844 248.28125 C 179.113281 246.339844 178.507812 244.316406 177.910156 242.492188 Z M 177.910156 242.492188 "/><path style=" stroke:none;fill-rule:nonzero;fill:rgb(99.21875%,74.508667%,6.269836%);fill-opacity:1;" d="M 229.515625 161.898438 C 229.253906 161.058594 228.71875 160.460938 227.914062 160.109375 C 226.632812 159.539062 224.6875 159.402344 223.703125 160.601562 C 223.457031 160.925781 223.136719 161.125 222.742188 161.203125 C 223.574219 161.488281 224.402344 161.90625 225.175781 162.167969 C 226.335938 162.550781 228.339844 163.371094 229.476562 162.945312 C 229.515625 162.925781 229.554688 162.917969 229.597656 162.917969 C 229.601562 162.878906 229.613281 162.839844 229.628906 162.804688 C 229.660156 162.492188 229.621094 162.191406 229.515625 161.898438 Z M 229.515625 161.898438 "/><path style=" stroke:none;fill-rule:nonzero;fill:rgb(99.21875%,74.508667%,6.269836%);fill-opacity:1;" d="M 201.199219 170.78125 C 200.570312 170.398438 199.890625 170.160156 199.15625 170.066406 C 198.425781 169.972656 197.707031 170.035156 197.003906 170.25 C 195.628906 170.710938 195.058594 171.394531 195.300781 172.824219 C 195.304688 172.863281 195.304688 172.902344 195.300781 172.945312 C 195.421875 173.039062 195.527344 173.144531 195.621094 173.265625 C 196.757812 174.640625 199.824219 176.921875 201.40625 174.914062 C 202.351562 173.746094 202.683594 171.667969 201.199219 170.78125 Z M 201.199219 170.78125 "/><path style=" stroke:none;fill-rule:nonzero;fill:rgb(45.098877%,79.219055%,80.389404%);fill-opacity:1;" d="M 248.382812 160.167969 C 246.007812 157.191406 241.664062 155.300781 238.066406 153.871094 C 230.839844 151.035156 223.398438 149 215.738281 147.761719 C 214.808594 152.953125 210.9375 158.074219 207.007812 160.859375 C 201.097656 165.042969 193.957031 164.796875 187.035156 164.742188 C 180.011719 164.683594 172.875 164.449219 165.988281 162.945312 C 159.550781 161.539062 152.761719 159.023438 148.285156 153.9375 C 147.164062 152.652344 145.816406 151.363281 145.789062 149.585938 C 145.761719 147.980469 145.695312 146.371094 145.726562 144.761719 C 145.726562 144.390625 145.742188 144.011719 145.757812 143.628906 C 137.679688 145.410156 129.53125 146.914062 121.578125 149.21875 C 117.824219 150.308594 112.90625 151.289062 110.40625 154.632812 C 108.84375 156.714844 109.40625 159.191406 110.816406 161.203125 C 112.15625 163.074219 113.765625 164.671875 115.640625 165.996094 C 115.855469 166.089844 116.042969 166.222656 116.207031 166.394531 C 121.027344 169.683594 127.128906 171.542969 132.433594 172.914062 C 139.925781 174.84375 147.480469 176.707031 155.078125 178.230469 C 170.910156 181.40625 187.199219 183.257812 203.347656 182.027344 C 211.296875 181.425781 219.21875 180.117188 226.804688 177.617188 C 233.703125 175.347656 241.09375 172.234375 246.667969 167.441406 C 247.949219 166.347656 249.230469 164.8125 249.457031 163.425781 C 249.632812 162.34375 249.300781 161.316406 248.382812 160.167969 Z M 126.722656 162.789062 C 125.734375 163.414062 124.078125 163.039062 123.945312 161.5 L 123.945312 161.203125 C 123.929688 161.074219 123.929688 160.945312 123.945312 160.820312 C 123.945312 157.175781 126.566406 153.519531 130.074219 152.453125 C 133.582031 151.390625 138.136719 153.160156 138.511719 157.300781 C 138.980469 162.785156 131.304688 163.628906 126.722656 162.789062 Z M 165.152344 173.808594 C 162.476562 176.117188 158.5 175.527344 155.644531 173.890625 C 155.277344 173.691406 155.019531 173.394531 154.863281 173.007812 C 154.707031 172.621094 154.6875 172.230469 154.8125 171.832031 C 154.484375 171.664062 154.25 171.410156 154.109375 171.070312 C 153.96875 170.730469 153.949219 170.386719 154.058594 170.035156 C 155.246094 165.304688 162.441406 161.105469 166.304688 165.53125 C 168.359375 167.90625 167.339844 171.929688 165.152344 173.808594 Z M 202.972656 178.25 C 199.316406 180.53125 195.183594 178.191406 192.730469 175.242188 C 192.445312 174.929688 192.316406 174.5625 192.34375 174.140625 C 192.039062 173.859375 191.855469 173.511719 191.796875 173.101562 C 190.652344 166.390625 200.4375 164.65625 204.175781 168.769531 C 206.605469 171.429688 206.140625 176.261719 202.972656 178.25 Z M 232.832031 164.175781 C 231.910156 166.820312 228.6875 166.773438 226.453125 166.222656 C 224.578125 165.761719 222.386719 164.515625 220.75 164.40625 C 218.488281 164.257812 219.1875 160.78125 221.421875 160.933594 L 221.507812 160.933594 C 220.699219 160.398438 220.246094 159.25 221.046875 158.273438 C 225.042969 153.394531 235.09375 157.621094 232.832031 164.15625 Z M 232.832031 164.175781 "/><path style=" stroke:none;fill-rule:nonzero;fill:rgb(0%,0%,0%);fill-opacity:1;" d="M 248.734375 155.640625 C 245.074219 152.742188 240.582031 150.953125 236.222656 149.429688 C 231.492188 147.796875 226.675781 146.453125 221.785156 145.394531 C 219.828125 144.960938 217.863281 144.558594 215.890625 144.222656 C 215.699219 142.386719 215.058594 140.730469 213.96875 139.25 L 213.96875 137.769531 C 214 137.214844 213.789062 136.777344 213.328125 136.464844 C 213.054688 135.730469 212.746094 135.019531 212.519531 134.390625 C 211.871094 132.609375 211.136719 130.867188 210.3125 129.164062 C 208.800781 125.972656 206.957031 122.992188 204.773438 120.222656 C 200.574219 114.949219 195.054688 110.957031 188.535156 109.1875 C 174.917969 105.503906 160.605469 113.15625 152.40625 123.882812 C 149.730469 127.378906 147.660156 131.605469 147.65625 136.074219 C 146.851562 137.246094 146.335938 138.539062 146.109375 139.945312 C 137.34375 141.929688 128.503906 143.535156 119.859375 146.039062 C 113.804688 147.796875 104.210938 151.136719 106.164062 159.367188 C 107.125 163.363281 110.089844 166.472656 113.632812 168.878906 C 115.359375 172.179688 118.140625 174.628906 120.941406 177.03125 C 124.304688 179.90625 127.566406 182.800781 131.144531 185.417969 C 138.882812 191.070312 147.214844 195.710938 155.449219 200.566406 C 163.332031 205.21875 172.414062 208.609375 181.636719 206.703125 C 186.300781 205.738281 190.832031 203.632812 195.144531 201.65625 C 199.609375 199.601562 203.972656 197.316406 208.371094 195.125 C 222.851562 187.910156 239.695312 183.296875 250.667969 170.605469 C 250.804688 170.457031 250.910156 170.289062 250.988281 170.101562 C 251.0625 169.914062 251.101562 169.71875 251.105469 169.515625 C 251.113281 169.3125 251.078125 169.117188 251.011719 168.925781 C 250.941406 168.734375 250.84375 168.5625 250.710938 168.40625 C 251.660156 167.285156 252.355469 166.023438 252.796875 164.621094 C 253.878906 161.039062 251.375 157.726562 248.734375 155.640625 Z M 160.304688 120.613281 C 165.316406 116.253906 171.1875 112.960938 177.8125 112.074219 C 179.484375 111.84375 181.15625 111.78125 182.839844 111.886719 C 184.519531 111.992188 186.175781 112.265625 187.800781 112.703125 C 189.429688 113.140625 191 113.734375 192.507812 114.488281 C 194.015625 115.242188 195.4375 116.136719 196.765625 117.175781 C 202.230469 121.417969 205.992188 127.558594 208.554688 133.90625 C 208.941406 134.871094 209.289062 135.835938 209.621094 136.800781 C 209.847656 137.460938 210.289062 138.355469 210.414062 139.113281 C 209.964844 139.066406 209.539062 139.144531 209.136719 139.347656 C 208.972656 139.441406 208.816406 139.542969 208.664062 139.648438 C 208.488281 139.765625 208.335938 139.90625 208.210938 140.070312 L 207.800781 140.394531 C 207.191406 140.851562 206.589844 141.308594 205.996094 141.777344 C 204.226562 143.1875 202.792969 144.671875 200.648438 145.542969 C 194.984375 147.847656 188.085938 147.300781 182.113281 147.152344 C 176.304688 147.011719 170.71875 146.621094 165.203125 144.625 C 160.226562 142.824219 155.667969 140.03125 151.230469 137.179688 C 151.230469 137.160156 151.230469 137.144531 151.230469 137.125 L 151.230469 137.011719 C 151.296875 136.730469 151.285156 136.457031 151.191406 136.183594 C 151.09375 129.996094 155.917969 124.4375 160.304688 120.613281 Z M 149.234375 142.839844 L 149.410156 142.796875 C 149.621094 142.761719 149.808594 142.683594 149.984375 142.5625 C 150.15625 142.445312 150.296875 142.292969 150.402344 142.109375 C 150.511719 141.929688 150.574219 141.734375 150.597656 141.523438 C 150.621094 141.3125 150.597656 141.109375 150.527344 140.90625 C 155.101562 143.804688 159.796875 146.523438 164.953125 148.257812 C 171.246094 150.382812 177.574219 150.574219 184.15625 150.726562 C 190.65625 150.875 197.921875 151.046875 203.832031 147.9375 C 205.011719 147.273438 206.097656 146.472656 207.082031 145.539062 C 207.640625 145.011719 208.222656 144.515625 208.828125 144.046875 C 209.664062 143.40625 210.859375 142.761719 211.460938 141.859375 C 211.910156 142.640625 212.207031 143.472656 212.351562 144.359375 C 211.632812 145.082031 211.546875 146.410156 212.351562 147.039062 C 211.613281 152.105469 206.894531 157.261719 202.894531 159.28125 C 199.765625 160.859375 196.242188 161.144531 192.796875 161.210938 C 189.445312 161.289062 186.074219 161.238281 182.726562 161.148438 C 175.683594 160.972656 168.546875 160.34375 161.804688 158.175781 C 158.648438 157.195312 155.761719 155.695312 153.136719 153.671875 C 151.9375 152.71875 150.867188 151.640625 149.921875 150.429688 C 149.253906 149.574219 149.3125 149.804688 149.300781 148.96875 C 149.300781 148.046875 149.257812 147.125 149.246094 146.199219 C 149.222656 145.210938 149.179688 144.027344 149.234375 142.839844 Z M 227.414062 182.660156 C 223.570312 184.496094 219.648438 186.082031 215.75 187.757812 C 211.226562 189.703125 206.832031 191.960938 202.433594 194.175781 C 198.03125 196.394531 193.675781 198.550781 189.15625 200.417969 C 184.632812 202.285156 180.257812 203.816406 175.328125 203.730469 C 165.917969 203.574219 157.449219 197.710938 149.605469 193.128906 C 143.089844 189.324219 136.699219 185.292969 130.699219 180.695312 C 127.980469 178.609375 125.492188 176.285156 122.890625 174.058594 C 122.542969 173.761719 122.1875 173.460938 121.835938 173.15625 C 122.230469 173.316406 122.621094 173.476562 123 173.621094 C 130.75 176.648438 139.136719 178.269531 147.226562 180.148438 C 162.8125 183.761719 178.808594 186.035156 194.828125 185.914062 C 209.488281 185.800781 224.355469 183.398438 237.65625 177.046875 C 234.359375 179.132812 230.941406 181.003906 227.414062 182.660156 Z M 249.449219 163.421875 C 249.222656 164.8125 247.9375 166.34375 246.664062 167.4375 C 241.09375 172.234375 233.703125 175.355469 226.804688 177.609375 C 219.21875 180.109375 211.296875 181.414062 203.347656 182.019531 C 187.199219 183.246094 170.910156 181.398438 155.078125 178.21875 C 147.488281 176.699219 139.929688 174.847656 132.433594 172.90625 C 127.128906 171.527344 121.027344 169.6875 116.207031 166.382812 C 116.042969 166.210938 115.855469 166.078125 115.640625 165.984375 C 113.765625 164.664062 112.15625 163.066406 110.816406 161.203125 C 109.40625 159.1875 108.84375 156.714844 110.40625 154.628906 C 112.90625 151.285156 117.824219 150.304688 121.578125 149.214844 C 129.53125 146.910156 137.679688 145.410156 145.757812 143.625 C 145.757812 144.007812 145.738281 144.390625 145.726562 144.757812 C 145.695312 146.367188 145.761719 147.976562 145.789062 149.585938 C 145.816406 151.355469 147.164062 152.660156 148.285156 153.933594 C 152.765625 159.023438 159.550781 161.539062 165.988281 162.941406 C 172.875 164.445312 180.011719 164.683594 187.035156 164.738281 C 193.957031 164.792969 201.097656 165.0625 207.007812 160.855469 C 210.945312 158.070312 214.808594 152.949219 215.738281 147.757812 C 223.398438 148.996094 230.839844 151.035156 238.066406 153.871094 C 241.648438 155.296875 246.007812 157.1875 248.382812 160.164062 C 249.300781 161.316406 249.632812 162.34375 249.457031 163.421875 Z M 249.449219 163.421875 "/><path style=" stroke:none;fill-rule:nonzero;fill:rgb(0%,0%,0%);fill-opacity:1;" d="M 138.484375 157.320312 C 138.109375 153.179688 133.578125 151.410156 130.046875 152.46875 C 126.515625 153.53125 123.929688 157.179688 123.917969 160.835938 C 123.902344 160.964844 123.902344 161.09375 123.917969 161.21875 L 123.917969 161.515625 C 124.050781 163.050781 125.707031 163.425781 126.695312 162.804688 C 131.304688 163.628906 138.980469 162.785156 138.484375 157.320312 Z M 134.964844 158 C 134.804688 158.855469 132.269531 159.289062 131.296875 159.414062 C 130.085938 159.558594 128.875 159.558594 127.660156 159.414062 C 127.925781 158.632812 128.335938 157.9375 128.890625 157.332031 C 129.449219 156.726562 130.105469 156.261719 130.863281 155.9375 C 132.34375 155.292969 135.347656 155.957031 134.964844 158 Z M 134.964844 158 "/><path style=" stroke:none;fill-rule:nonzero;fill:rgb(0%,0%,0%);fill-opacity:1;" d="M 221.046875 158.265625 C 220.246094 159.234375 220.699219 160.394531 221.507812 160.929688 L 221.421875 160.929688 C 219.183594 160.777344 218.488281 164.25 220.75 164.398438 C 222.386719 164.507812 224.578125 165.753906 226.453125 166.21875 C 228.691406 166.765625 231.910156 166.8125 232.832031 164.167969 C 235.09375 157.621094 225.042969 153.394531 221.046875 158.265625 Z M 229.605469 162.808594 C 229.589844 162.847656 229.578125 162.886719 229.574219 162.925781 C 229.535156 162.925781 229.492188 162.933594 229.453125 162.953125 C 228.316406 163.375 226.3125 162.558594 225.152344 162.175781 C 224.382812 161.921875 223.550781 161.503906 222.71875 161.210938 C 223.113281 161.132812 223.433594 160.929688 223.679688 160.609375 C 224.664062 159.410156 226.597656 159.542969 227.890625 160.113281 C 228.699219 160.464844 229.230469 161.0625 229.492188 161.90625 C 229.597656 162.199219 229.636719 162.5 229.605469 162.808594 Z M 229.605469 162.808594 "/><path style=" stroke:none;fill-rule:nonzero;fill:rgb(0%,0%,0%);fill-opacity:1;" d="M 204.1875 168.75 C 200.453125 164.640625 190.664062 166.375 191.804688 173.085938 C 191.867188 173.496094 192.050781 173.84375 192.351562 174.125 C 192.328125 174.546875 192.457031 174.914062 192.738281 175.222656 C 195.183594 178.175781 199.316406 180.515625 202.984375 178.234375 C 206.140625 176.261719 206.605469 171.429688 204.1875 168.75 Z M 201.441406 174.894531 C 199.863281 176.902344 196.796875 174.621094 195.660156 173.246094 C 195.566406 173.125 195.457031 173.019531 195.339844 172.925781 C 195.34375 172.882812 195.34375 172.84375 195.339844 172.804688 C 195.097656 171.386719 195.660156 170.703125 197.042969 170.230469 C 197.746094 170.019531 198.460938 169.957031 199.191406 170.050781 C 199.917969 170.140625 200.597656 170.378906 201.226562 170.761719 C 202.683594 171.667969 202.351562 173.746094 201.441406 174.894531 Z M 201.441406 174.894531 "/><path style=" stroke:none;fill-rule:nonzero;fill:rgb(0%,0%,0%);fill-opacity:1;" d="M 166.304688 165.542969 C 162.441406 161.105469 155.246094 165.304688 154.058594 170.046875 C 153.949219 170.398438 153.96875 170.746094 154.109375 171.085938 C 154.25 171.421875 154.484375 171.675781 154.8125 171.84375 C 154.6875 172.242188 154.707031 172.636719 154.863281 173.023438 C 155.019531 173.410156 155.277344 173.703125 155.644531 173.902344 C 158.5 175.539062 162.476562 176.128906 165.152344 173.820312 C 167.339844 171.929688 168.359375 167.90625 166.304688 165.542969 Z M 162.917969 171.109375 C 161.394531 172.421875 159.074219 171.71875 157.476562 170.863281 C 157.492188 170.8125 157.507812 170.765625 157.519531 170.710938 C 158.03125 168.667969 161.4375 166.207031 163.367188 167.578125 C 164.390625 168.3125 163.773438 170.371094 162.917969 171.109375 Z M 162.917969 171.109375 "/><path style=" stroke:none;fill-rule:nonzero;fill:rgb(0%,0%,0%);fill-opacity:1;" d="M 163.992188 210.867188 C 161.863281 209.1875 159.542969 211.652344 158.117188 213.101562 C 156.195312 215.054688 154.554688 217.265625 152.671875 219.257812 C 146.378906 225.933594 138.5625 230.925781 132.695312 238.050781 C 132.109375 238.761719 132.082031 239.941406 132.855469 240.550781 C 136.15625 243.152344 139.894531 245.089844 143.472656 247.238281 C 144.085938 247.605469 145.167969 247.433594 145.582031 246.820312 C 149.003906 241.757812 151.457031 236.203125 153.84375 230.609375 C 156.199219 225.085938 158.542969 219.4375 162.226562 214.648438 C 162.398438 214.429688 162.515625 214.1875 162.578125 213.914062 C 164.109375 214.082031 165.480469 212.03125 163.992188 210.867188 Z M 143.722656 243.289062 C 141.308594 241.890625 138.871094 240.539062 136.59375 238.933594 C 141.519531 233.390625 147.480469 228.929688 152.921875 223.910156 C 149.949219 230.421875 147.542969 237.234375 143.722656 243.289062 Z M 143.722656 243.289062 "/><g clip-rule="nonzero" clip-path="url(#clip1)"><path style=" stroke:none;fill-rule:nonzero;fill:rgb(0%,0%,0%);fill-opacity:1;" d="M 182.277344 245.441406 C 181.582031 240.679688 179.328125 236.136719 177.671875 231.667969 C 175.84375 226.738281 173.722656 221.105469 174.175781 215.75 C 174.210938 215.421875 174.160156 215.109375 174.023438 214.8125 C 173.886719 214.511719 173.6875 214.269531 173.417969 214.082031 C 172.859375 212.929688 170.964844 212.472656 170.21875 213.984375 C 164.351562 226.015625 165.175781 240.191406 162.386719 253.035156 C 162.125 254.230469 163.140625 255.140625 164.25 255.140625 C 168.292969 255.140625 172.433594 255.140625 176.410156 254.25 C 178.230469 253.847656 179.972656 253.175781 181.160156 251.660156 C 182.515625 249.917969 182.566406 247.539062 182.277344 245.441406 Z M 178.855469 248.28125 C 178.609375 250.011719 177.066406 250.472656 175.59375 250.832031 C 172.613281 251.5625 169.398438 251.621094 166.277344 251.617188 C 167.359375 245.9375 167.878906 240.15625 168.664062 234.433594 C 169.234375 230.230469 169.867188 225.921875 171.039062 221.804688 C 172.222656 228.917969 175.71875 235.773438 177.925781 242.492188 C 178.507812 244.316406 179.113281 246.339844 178.839844 248.28125 Z M 178.855469 248.28125 "/></g><path style=" stroke:none;fill-rule:nonzero;fill:rgb(0%,0%,0%);fill-opacity:1;" d="M 208.460938 238.230469 C 204.882812 233.636719 199.988281 230.367188 195.402344 226.871094 C 191.242188 223.710938 186.460938 220.097656 184.976562 214.828125 C 184.929688 214.625 184.84375 214.4375 184.71875 214.265625 C 184.59375 214.097656 184.441406 213.957031 184.257812 213.851562 C 184.078125 213.746094 183.882812 213.679688 183.671875 213.65625 C 183.464844 213.632812 183.257812 213.648438 183.058594 213.710938 C 181.886719 213.515625 180.496094 214.527344 181.019531 215.996094 C 185.03125 227.378906 189.929688 238.453125 193.179688 250.097656 C 193.46875 251.128906 194.980469 251.691406 195.828125 250.980469 C 199.898438 247.566406 203.921875 244.097656 207.992188 240.683594 C 208.679688 240.105469 209.097656 239.054688 208.460938 238.230469 Z M 195.773438 246.429688 C 193.660156 239.394531 191.007812 232.550781 188.382812 225.695312 C 189.574219 226.765625 190.816406 227.769531 192.039062 228.726562 C 196.234375 232.011719 200.96875 234.972656 204.523438 239.023438 C 201.609375 241.472656 198.699219 243.960938 195.773438 246.429688 Z M 195.773438 246.429688 "/></g></svg>