<?xml version="1.0" encoding="UTF-8"?><svg xmlns="http://www.w3.org/2000/svg" xmlns:xlink="http://www.w3.org/1999/xlink" contentScriptType="text/ecmascript" width="375" zoomAndPan="magnify" contentStyleType="text/css" viewBox="0 0 375 374.999991" height="374.999991" preserveAspectRatio="xMidYMid meet" version="1.0"><path fill="rgb(34.509277%, 28.62854%, 59.609985%)" d="M 58.570312 164.917969 L 25.753906 197.828125 L 25.136719 198.386719 C 19.546875 203.089844 10.65625 202.976562 5.457031 197.828125 C 0.535156 192.902344 0.0351562 184.226562 4.394531 178.742188 C 4.84375 178.179688 5.007812 178.070312 5.457031 177.511719 L 62.765625 120.195312 C 65.726562 117.398438 69.585938 115.886719 73.722656 116 C 77.1875 116.332031 80.433594 117.789062 83.003906 120.195312 L 140.3125 177.511719 C 146.796875 184.449219 144.839844 197.101562 135.671875 200.90625 C 130.976562 202.863281 125.214844 202.082031 121.246094 198.890625 C 120.6875 198.441406 120.574219 198.332031 120.015625 197.828125 L 87.199219 164.917969 C 87.140625 191.726562 87.140625 216.355469 87.199219 245.289062 C 87.363281 262.976562 99.21875 279.824219 116.160156 285.703125 C 120.6875 287.210938 125.441406 288.050781 130.191406 288.050781 L 302.058594 288.050781 C 303.121094 288.164062 304.183594 288.164062 305.191406 288.386719 C 313.519531 290.289062 318.886719 300.421875 314.917969 308.59375 C 313.074219 312.457031 309.382812 315.421875 305.191406 316.375 C 304.183594 316.597656 303.121094 316.597656 302.058594 316.710938 L 130.136719 316.710938 C 106.820312 316.652344 83.898438 304.507812 70.871094 285.140625 C 62.875 273.386719 58.628906 259.28125 58.570312 245.066406 Z M 287.746094 210.421875 C 287.746094 183.609375 287.800781 158.984375 287.746094 130.046875 C 287.523438 108.105469 268.960938 88.179688 246.375 87.339844 C 245.8125 87.339844 245.253906 87.339844 244.75 87.339844 L 72.882812 87.339844 C 71.820312 87.171875 70.761719 87.171875 69.699219 86.949219 C 61.480469 85.101562 56.054688 75.027344 60.023438 66.742188 C 61.871094 62.882812 65.503906 59.972656 69.699219 59.019531 C 70.761719 58.796875 71.820312 58.796875 72.882812 58.628906 C 130.359375 58.628906 187.78125 58.460938 245.199219 58.628906 C 270.023438 58.90625 294.121094 72.734375 306.644531 94.28125 C 312.960938 105.140625 316.316406 117.675781 316.371094 130.328125 L 316.371094 210.421875 L 349.191406 177.511719 L 349.808594 177.007812 C 352.660156 174.542969 356.238281 173.257812 360.148438 173.367188 C 360.820312 173.425781 360.988281 173.425781 361.714844 173.535156 C 369.65625 174.878906 375.359375 183.835938 373.066406 191.671875 C 372.394531 193.964844 371.109375 196.09375 369.488281 197.828125 L 312.179688 255.199219 C 311.621094 255.644531 311.507812 255.8125 311.003906 256.203125 C 305.972656 260.234375 298.203125 260.289062 293.113281 256.203125 C 292.554688 255.8125 292.441406 255.644531 291.882812 255.199219 L 234.632812 197.828125 C 228.148438 190.941406 230.101562 178.238281 239.273438 174.429688 C 243.96875 172.472656 249.726562 173.257812 253.699219 176.445312 C 254.257812 176.949219 254.367188 177.0625 254.871094 177.511719 L 287.746094 210.421875 " fill-opacity="1" fill-rule="nonzero"/></svg>