<svg xmlns="http://www.w3.org/2000/svg" xmlns:xlink="http://www.w3.org/1999/xlink" viewBox="0 0 371.66 149.97"><defs><style>.cls-1{fill:none;}.cls-2{fill:#34b7e2;}.cls-3{fill:#80d5f5;}.cls-4{fill:#eec328;}.cls-5{fill:#87cb3d;}.cls-6{fill:#a4d53b;}.cls-7{clip-path:url(#clip-path);}.cls-8{fill:#1c9fc8;}.cls-9{fill:#2e301a;}.cls-10{fill:#555a50;}.cls-11{fill:#c1bac5;}.cls-12{fill:#98daee;}.cls-13{fill:#4298b3;}.cls-14{fill:#65c5e8;}.cls-15{fill:#b38ac8;}.cls-16{fill:#c5a6d7;}.cls-17{fill:#63b534;}.cls-18{clip-path:url(#clip-path-2);}.cls-19{fill:#d9eccc;}.cls-20{fill:#2a2e2d;}.cls-21{fill:#888d8a;}.cls-22{fill:#ccced4;}.cls-23{fill:#fff;}.cls-24{fill:#5f9e48;}.cls-25{fill:#266a8d;}.cls-26{fill:#1e5171;}.cls-27{fill:#f49eb0;}.cls-28{fill:#f3b7bd;}.cls-29{fill:#a680bf;}.cls-30{fill:#9a74b5;}.cls-31{fill:#795696;}.cls-32{fill:#5a3572;}.cls-33{fill:#8d71a8;}.cls-34{fill:#b99acf;}.cls-35{fill:#d2bddc;}.cls-36{fill:#906bac;}.cls-37{clip-path:url(#clip-path-3);}.cls-38{fill:#e4e6e9;}.cls-39{fill:#bfc3ca;}.cls-40{fill:#ed6e8f;}.cls-41{fill:#f3abb7;}.cls-42{fill:#f2869f;}.cls-43{fill:#d67d8f;}.cls-44{fill:#546450;}.cls-45{fill:#c06879;}.cls-46{fill:#f6d1de;}.cls-47{fill:#e2879a;}.cls-48{fill:#663633;}.cls-49{fill:#f9cd32;}.cls-50{fill:#e2b921;}.cls-51{fill:#f7ebb7;}.cls-52{fill:#f8e39c;}.cls-53{fill:#d5ae21;}.cls-54{fill:#bd9920;}.cls-55{fill:#a08429;}.cls-56{fill:#cfb054;}.cls-57{fill:#e2a0a2;}.cls-58{fill:#d77979;}.cls-59{fill:#f2f3f5;}</style><clipPath id="clip-path"><rect class="cls-1" x="277.17" y="44.72" width="94.49" height="97.69"/></clipPath><clipPath id="clip-path-2"><rect class="cls-1" x="156.53" y="37.66" width="87.68" height="112.31"/></clipPath><clipPath id="clip-path-3"><rect class="cls-1" x="116.87" width="25" height="36.5"/></clipPath></defs><g id="Calque_2" data-name="Calque 2"><g id="Calque_1-2" data-name="Calque 1"><g id="surface1"><path class="cls-2" d="M290.58,81.46s-9.78.81-14.36-2.87-2.29-6.63-7.55-8-9,4.74-4.73,10.35,17.65,8.27,23.16,5.29,3.48-4.78,3.48-4.78"/><path class="cls-3" d="M267.87,71.62s3,.77,2,4.52-.65,5.15,4,6.31S287,82.3,287,82.3s-9,.2-12.14-3.69-2.81-7.54-6.94-7"/><path class="cls-4" d="M268.59,69.82s11.68,22.3,24.17,26.06a1.81,1.81,0,0,1,3.07-.29s3.41,0,3.06,2.92S284,105.19,268.45,71.9l.14-2.08"/><path class="cls-5" d="M232.82,84.48s9.74-2.55,12.92-7.68-.05-7.21,4.58-10.32,10.36,1.5,8.12,8.4-14.26,14.05-20.62,13-5-3.44-5-3.44"/><path class="cls-6" d="M251.44,67.2s-2.67,1.78-.36,5,2.39,4.77-1.72,7.49-12.75,4.34-12.75,4.34,8.76-2.87,10.5-7.74.14-8.26,4.33-9.13"/><path class="cls-2" d="M352,76.53s6.69-7.18,6.63-13.05-3.79-5.91-1.6-10.88,9.31-4.16,11.05,2.69-4.42,19-10.17,21.46-5.91-.22-5.91-.22"/><path class="cls-3" d="M358.29,52.61S357,55.47,360.62,57s4.45,2.67,2.48,7-8.23,10.2-8.23,10.2,5.72-6.92,4.61-11.82-4.18-6.87-1.19-9.77"/><g class="cls-7"><path class="cls-8" d="M285,110.27c-1.4,4.56-9.67,17.17-6.67,24.5s15.84,7.67,30.84,6.33,26.67-.66,42,.51,20.84.83,20.5-8.17-8.5-24.34-10.33-36.84-9.17-49.51-34.17-51.67c-22.09-1.91-32.84,19-36.67,34s-3,23.17-5.5,31.34"/></g><path class="cls-2" d="M287,107.55c-1.33,4.26-9.19,16-6.33,22.84s15,7.15,29.29,5.91,25.33-.62,39.9.47,19.79.77,19.47-7.62-8.07-22.69-9.81-34.34S350.77,48.66,327,46.64c-21-1.78-31.2,17.72-34.84,31.7s-2.85,21.6-5.22,29.21"/><path class="cls-8" d="M297.3,74.82a5.13,5.13,0,1,0,5.12-5.12,5.12,5.12,0,0,0-5.12,5.12"/><path class="cls-9" d="M299,75.14a4,4,0,1,0,3.95-4,4,4,0,0,0-3.95,4"/><path class="cls-10" d="M300.37,75.14A2.59,2.59,0,1,0,303,72.55a2.6,2.6,0,0,0-2.59,2.59"/><path class="cls-11" d="M300.25,76.7a1.28,1.28,0,1,0,1.28-1.27,1.28,1.28,0,0,0-1.28,1.27"/><path class="cls-8" d="M349,74.82a5.13,5.13,0,1,1-5.13-5.12A5.13,5.13,0,0,1,349,74.82"/><path class="cls-9" d="M347.25,75.14a4,4,0,1,1-4-4,4,4,0,0,1,4,4"/><path class="cls-10" d="M345.89,75.14a2.6,2.6,0,1,1-2.6-2.59,2.6,2.6,0,0,1,2.6,2.59"/><path class="cls-11" d="M343,76.7a1.28,1.28,0,1,1-1.28-1.27A1.28,1.28,0,0,1,343,76.7"/><path class="cls-12" d="M310.21,82.38a1.84,1.84,0,1,1-1.83-1.84,1.83,1.83,0,0,1,1.83,1.84"/><path class="cls-12" d="M341,82.67a1.84,1.84,0,1,1-1.83-1.84A1.83,1.83,0,0,1,341,82.67"/><path class="cls-13" d="M339.19,82.69c.15.17-6.31,3.24-14.89,3s-15-2.75-14.91-3,6.59,1.88,14.93,2,14.77-2.32,14.87-2"/><path class="cls-3" d="M319.39,88.48c-.75-.54,2.14-1.25,4.49-.3s5.07-1.54,5.59-.29-6.77,2.94-10.08.59"/><path class="cls-3" d="M342.23,135.18c-4.33-3.91,7.09-7.38,4.77-10.56s-3.61,1.88-7.07-1.3,13-16.61,8.66-19.36-9.39,6.79-13.44,7.52-3.46-3.76-6.79-3.76-3.18,3.18-8.09,4.33-11.41-13.87-16.18-10.25,7.37,7.22,6.5,10.83-10.7-3.75-13.58,1.59,12.42,4.77,11.85,8.53-4.2,2.31-6.36,5.49S310,132,310,134.59s-5.2,3.33-9.83,4.77c-2.05.65-2.3,1.55-1.95,2.35,3.41,0,7.09-.27,10.91-.61,15-1.33,26.67-.66,42,.51l.82,0c-1.19-2.36-6.24-3.36-9.73-6.48"/><path class="cls-14" d="M309.92,136.3l-1,.08c-1.77,1.27-5.41,1.94-8.75,3-2.05.65-2.3,1.55-1.95,2.35,3.41,0,7.14.2,11-.07,12.76-.87,27.24-.42,41.94,0,.29,0,.54,0,.82,0-1-2-4.95-3.06-8.24-5.33a206.12,206.12,0,0,0-33.8,0"/><path class="cls-3" d="M298.6,125.42c0,.84-1.3,1.52-2.89,1.52s-2.89-.68-2.89-1.52,1.29-1.52,2.89-1.52,2.89.68,2.89,1.52"/><path class="cls-3" d="M296.72,107.79c0,.44-1,.8-2.17.8s-2.17-.36-2.17-.8,1-.79,2.17-.79,2.17.36,2.17.79"/><path class="cls-3" d="M304.66,110.25c0,.36-.61.65-1.37.65s-1.37-.29-1.37-.65.62-.65,1.37-.65,1.37.29,1.37.65"/><path class="cls-3" d="M303.07,98.55c0,.35-.77.64-1.73.64s-1.73-.29-1.73-.64.78-.66,1.73-.66,1.73.3,1.73.66"/><path class="cls-3" d="M323.74,100.79c0,.95-1.46,1.73-3.25,1.73s-3.25-.78-3.25-1.73,1.45-1.74,3.25-1.74,3.25.78,3.25,1.74"/><path class="cls-3" d="M333,102c0,.28-.49.51-1.09.51s-1.08-.23-1.08-.51.49-.5,1.08-.5,1.09.22,1.09.5"/><path class="cls-3" d="M323.3,106.85c0,.24-.67.44-1.51.44s-1.52-.2-1.52-.44.68-.43,1.52-.43,1.51.19,1.51.43"/><path class="cls-3" d="M352.06,98.62c0,.47-1,.86-2.31.86s-2.31-.39-2.31-.86,1-.87,2.31-.87,2.31.39,2.31.87"/><path class="cls-3" d="M350.91,118.12c0,.4-.88.73-2,.73s-2-.33-2-.73.88-.72,2-.72,2,.33,2,.72"/><path class="cls-3" d="M355.68,112.56c0,.36-.59.65-1.31.65s-1.3-.29-1.3-.65.59-.65,1.3-.65,1.31.29,1.31.65"/><path class="cls-3" d="M351.34,127.23c0,.16-.39.29-.87.29s-.86-.13-.86-.29.38-.29.86-.29.87.13.87.29"/><path class="cls-9" d="M301.41,61.61a6.46,6.46,0,0,0-3.71,3l2.06,1.08A4.15,4.15,0,0,1,302,63.85a4.24,4.24,0,0,1,3.32.78l1.24-2a6.41,6.41,0,0,0-5.18-1"/><path class="cls-9" d="M345.41,62.1a6.39,6.39,0,0,0-4.51,1.48l1.53,1.75a4.13,4.13,0,0,1,2.77-.92A4.24,4.24,0,0,1,348,66.33l1.86-1.4a6.41,6.41,0,0,0-4.48-2.83"/><path class="cls-4" d="M261.84,66S250.15,88.27,237.66,92a1.8,1.8,0,0,0-3.06-.3s-3.42,0-3.07,2.92S246.4,101.34,262,68.05L261.84,66"/><path class="cls-15" d="M162.54,76.43s7.81,8.21,14.64,10.41,13.62.29,15.25,3.81-1.62,10.8-7.38,9.17-18.92-11.6-22.7-18.42l.19-5"/><path class="cls-16" d="M164.58,78.91s6.35,6.68,11.91,8.47,11.1.23,12.42,3.1-1.31,8.8-6,7.47S167.5,88.5,164.42,83l.16-4"/><path class="cls-5" d="M172.3,82.45s-6,5.79-10.94,5.84-5.07-3.11-9.24-1.17-3.37,8,2.46,9.31,16-4.06,18-9-.3-5-.3-5"/><path class="cls-6" d="M152.14,88.21s2.4-1.12,3.72,1.91,2.34,3.72,6,2S170.39,85,170.39,85s-5.78,5-9.95,4.11-5.89-3.43-8.3-.85"/><path class="cls-17" d="M176.16,127.27s-6.73,3.89-6.09,6.54,4.73,3.17,10.13-1.36,10.72-6.31,14.85-4.23.64,8.51,6.64,9,2.1-6.37,9-8,9.91-.86,12.86,2.85,10.59,11.1,13.45,6-36.53-28.2-60.82-10.82"/><g class="cls-18"><path class="cls-5" d="M166.61,128c4.19-2.37,8.4-12.33,7.68-24.46s-6.75-29.29-1.15-45.81,27.69-22.52,43.53-18.17,23.71,18.69,20,44.88-2,29.71-1.72,37.85,4.63,10.49,8,12.37-1.72,8.36-6.8,5.34-5.78-8.83-9.64-9.74c-6.29-1.48-7.06,5.07-5.7,9.93s3.92,9.75-1.56,9.82c-5.74.07-7.27-7.36-6.44-14.61s-.49-10.33-9.33-11.1-13.07.24-13.75,7.9-1.35,15.51-6.81,14.64-2.33-7.32-.32-12.3,2.1-8.12-2.06-8.09-6.94,9.29-13.12,9.74-11-1-10.72-4.1,3.81-.66,9.85-4.09"/></g><path class="cls-17" d="M199.83,86.51a11.47,11.47,0,1,1-10.44-12.43,11.46,11.46,0,0,1,10.44,12.43"/><path class="cls-19" d="M200.09,83.51a11.47,11.47,0,1,1-10.43-12.43,11.48,11.48,0,0,1,10.43,12.43"/><path class="cls-20" d="M176.23,81.43a12.48,12.48,0,1,0,13.51-11.34A12.49,12.49,0,0,0,176.23,81.43Zm2,.18A10.47,10.47,0,1,1,187.75,93a10.49,10.49,0,0,1-9.53-11.34"/><path class="cls-21" d="M192.06,83a1.11,1.11,0,0,1-1.2,1,1.09,1.09,0,0,1-1-1.19,1.1,1.1,0,1,1,2.2.19"/><path class="cls-17" d="M209.72,85.86a11.48,11.48,0,1,0,12.44-10.43,11.49,11.49,0,0,0-12.44,10.43"/><path class="cls-19" d="M210,82.87a11.47,11.47,0,1,0,12.43-10.44A11.47,11.47,0,0,0,210,82.87"/><path class="cls-20" d="M222.5,71.43A12.48,12.48,0,1,0,233.85,85,12.5,12.5,0,0,0,222.5,71.43Zm-2,22.87a10.47,10.47,0,1,1,11.34-9.53,10.48,10.48,0,0,1-11.34,9.53"/><path class="cls-21" d="M215.13,83.57a1.1,1.1,0,1,0,1.19-1,1.1,1.1,0,0,0-1.19,1"/><path class="cls-17" d="M201.32,99s-.21,3.51.86,4.78c0,0-1.49,1.34-1.41,2.72,0,0,2.45-4.59,5.79-.18l.19-2.14s1.51-.56,3.85,1.8a4.17,4.17,0,0,1-1.56-3.46c.28-2-3-5.25-7.72-3.52"/><path class="cls-22" d="M210.83,96.21,202,98.88s-.64,3.55,0,4.25,4.22.37,5.31.14.66-1,.66-1a1.48,1.48,0,0,0,1.48.78c1-.15,4-1.61,4.09-2.75s-2.67-4.08-2.67-4.08"/><path class="cls-23" d="M210.38,96.66,202.64,99s-.69,3.21.34,3.63,3.56.55,4.2-.29a4.85,4.85,0,0,0,.41-2.75s1,2.62,1.82,2.53,3.11-1,3.2-2-2.23-3.47-2.23-3.47"/><path class="cls-24" d="M213.38,94.14c.23,0-2.73,4.12-8.54,4.91s-9.8-2.26-9.52-2.47c.13-.36,4.15,1.92,9.36,1.21s8.41-4.08,8.7-3.65"/><path class="cls-20" d="M199.53,83.64a1,1,0,0,0,1.24,1.57c.18-.13,4.28-3.26,8.57.91a1,1,0,0,0,1.4-1.44,8.43,8.43,0,0,0-11.21-1"/><path class="cls-9" d="M187,59.43a8.35,8.35,0,0,0-5.1,3.44l2.53,1.63a5.3,5.3,0,0,1,3.12-2.11,5.52,5.52,0,0,1,4.19,1.38l1.82-2.39a8.33,8.33,0,0,0-6.56-2"/><path class="cls-9" d="M223.13,58.85a8.19,8.19,0,0,0-5.77,2.08l2,2.19a5.3,5.3,0,0,1,3.53-1.27,5.49,5.49,0,0,1,3.72,2.36L229,62.33a8.33,8.33,0,0,0-5.89-3.48"/><path class="cls-6" d="M203.41,39.18c9.4-1,19,2.74,22.38,6.81s1.35,10.07-9.47,10.32,4.26,14.1-5.28,15.32-17.64-.34-13.56-7.7,4-9.08-4.21-8.77-19.1-13,10.14-16"/><path class="cls-6" d="M182.43,144.73c1.95.69,3.3-1.3,3.68-5.63s1-8.22-.2-7.23-6,12-3.48,12.86"/><path class="cls-6" d="M159.31,133.38c-.15,1.08,6.18,2.21,8.44,1.24s6.55-5.89,7.63-7.64-3,1.42-5.48,3.21-10.34,1.28-10.59,3.19"/><path class="cls-6" d="M216.7,137.92c-1.44,1.14.43,11.36,2.75,9.72s-.95-11.16-2.75-9.72"/><path class="cls-6" d="M233.23,132.57c-.73-.29,1.91,4.11,3.81,5.45s6.23.71,6.2-1-1.82-1.16-10-4.48"/><path class="cls-25" d="M203.2,109s-5.07-3.63-6.28-2.72-1.06,8.09.15,8.47,6.5-3,6.5-3L203.2,109"/><path class="cls-25" d="M205.61,109s5.07-3.63,6.28-2.72,1.06,8.09-.15,8.46-6.51-2.94-6.51-2.94l.38-2.8"/><path class="cls-26" d="M206.22,108.43a5.23,5.23,0,0,0-4.09,0l-.07,4.31a6.68,6.68,0,0,0,4.54-.22l-.38-4.09"/><path class="cls-27" d="M81.25,91.21a118.83,118.83,0,0,0,16.92,8c7.6,2.63,14.56,2.22,13.84-4.31s-4.26-.31-5.72-1.91.56-3.18-4.51-1.18-12.52.78-15.4-.78-6.2-2.51-5.13.17"/><path class="cls-28" d="M108,99.52c1.21-.41,2.57-2.21.53-3.53s-3.92-1.14-5.46-2.48-3-.92-3.36,1-6.77.19-5.2,2.15,11,3.71,13.49,2.89"/><path class="cls-15" d="M78.89,68.08S70.32,60.68,67.79,54s-.94-13.59-4.54-15.05-10.71,2.13-8.8,7.8S67,65.07,73.94,68.51l5-.43"/><path class="cls-16" d="M76.33,66.16s-7-6-9-11.49-.77-11.07-3.7-12.26-8.72,1.74-7.16,6.36S66.6,63.71,72.29,66.52l4-.36"/><path class="cls-15" d="M93.64,135s1.43-27.49-.73-44.84-6.65-39.51-3.06-49.43,22.34-19.64,40.31-19,38.89,8.07,38.31,19.54-4.35,86.81-2.68,91.59c0,0,6.62,7.45-.75,8.44s-10.18-.35-10.12-4.89,1.81-6.69-14.63-8-32.27.24-35.36,4.11,3.6,7-1.63,9.07-18,.86-9.66-6.62"/><path class="cls-29" d="M149.11,24.14c-12.54-3.73-26.27-4.54-38.75-.21-7,2.44-14.44,7.21-18.78,13.49-4,5.8-3.29,14-2.78,20.66,1.52,19.74,5.38,38.81,5.3,58.71,5.06-8.47,3.38-21.58,2.73-31-.7-10.3-2.09-20.69-1.48-31,.31-5.29,5-26.62,14.05-19.32,3.71,3,8.83,3.39,13.42,3.37,4.33,0,11.84.44,15.26-2.28,5.12-4,9.06-10,15.63-5,9.8,7.55,7.68,23.17,7.77,34.07.09,13.64-.12,27.74,4.22,40.84.87-29.52,2.61-51.38,3.32-65.41.47-9.5-12.86-14.85-19.91-17"/><path class="cls-29" d="M165.79,132.84a30.56,30.56,0,0,1-.4-6.07,8.89,8.89,0,0,1-3.57,4.75c3.78,1.94,6.13,5.64,5.53,9,3.35-2.17-1.56-7.69-1.56-7.69"/><path class="cls-29" d="M158,130.37c-18-6.49-38.44-8.35-55.69,1.08a12.84,12.84,0,0,1,.33,10.35,6.57,6.57,0,0,0,.67-.22c5.23-2.1-1.45-5.21,1.63-9.07s18.91-5.4,35.36-4.11,14.69,3.44,14.63,8c0,3.12,1.27,4.73,4.48,5.11A8.84,8.84,0,0,1,158,130.37"/><path class="cls-29" d="M97.32,135.21c-3.95-1.54-2.35-6.42-3.36-9.27-.14,5.42-.32,9-.32,9-3.77,3.38-3.21,5.49-1,6.58-.41-3.47,1.09-5.27,4.68-6.33"/><path class="cls-30" d="M100.34,77a4.35,4.35,0,1,0,4.4-4.29,4.35,4.35,0,0,0-4.4,4.29"/><path class="cls-9" d="M101.79,77.24a3.35,3.35,0,1,0,3.39-3.31,3.37,3.37,0,0,0-3.39,3.31"/><path class="cls-10" d="M102.94,77.25a2.2,2.2,0,1,0,2.23-2.16,2.21,2.21,0,0,0-2.23,2.16"/><path class="cls-11" d="M102.83,78.58a1.08,1.08,0,1,0,1.09-1.07,1.08,1.08,0,0,0-1.09,1.07"/><path class="cls-30" d="M159.14,76.2a4.35,4.35,0,1,1-4.28-4.4,4.34,4.34,0,0,1,4.28,4.4"/><path class="cls-9" d="M157.69,76.45a3.35,3.35,0,1,1-3.3-3.39,3.35,3.35,0,0,1,3.3,3.39"/><path class="cls-10" d="M156.54,76.44a2.2,2.2,0,1,1-2.17-2.23,2.2,2.2,0,0,1,2.17,2.23"/><path class="cls-11" d="M153.89,77.64a1.08,1.08,0,0,1-1.09,1.07,1.08,1.08,0,1,1,0-2.16,1.07,1.07,0,0,1,1.06,1.09"/><path class="cls-30" d="M135.51,55.34a4.35,4.35,0,1,1-4.29-4.4,4.34,4.34,0,0,1,4.29,4.4"/><path class="cls-9" d="M134.06,55.6a3.35,3.35,0,1,1-3.31-3.4,3.34,3.34,0,0,1,3.31,3.4"/><path class="cls-10" d="M132.91,55.58a2.2,2.2,0,1,1-4.39-.06,2.2,2.2,0,0,1,4.39.06"/><path class="cls-11" d="M130.26,56.79a1.08,1.08,0,1,1-1.06-1.1,1.07,1.07,0,0,1,1.06,1.1"/><path class="cls-9" d="M101.72,57.88a8.29,8.29,0,0,0-4.83,3.8l2.64,1.44a5.33,5.33,0,0,1,3-2.33,5.46,5.46,0,0,1,4.28,1.06l1.63-2.52a8.29,8.29,0,0,0-6.67-1.45"/><path class="cls-9" d="M129.77,38.27a8.2,8.2,0,0,0-5.41,2.89L126.7,43A5.29,5.29,0,0,1,130,41.26a5.51,5.51,0,0,1,4,1.8l2.06-2.2a8.3,8.3,0,0,0-6.33-2.59"/><path class="cls-9" d="M155.09,54.77a8.36,8.36,0,0,0-5.42,2.89L152,59.55a5.2,5.2,0,0,1,3.31-1.78,5.47,5.47,0,0,1,4,1.79l2-2.19a8.29,8.29,0,0,0-6.32-2.6"/><path class="cls-31" d="M108.86,87.2s11.55,5.39,22.41,4a86.81,86.81,0,0,0,20.4-5.55s-8.76,21.45-20.62,22.08-20.41-11.1-22.19-20.5"/><path class="cls-32" d="M122.71,103.49c5.49-.92,10.45-2.7,15.83-.79.67-3.56.41-8.14-3-11-1.38.27-2.79.51-4.22.7a32,32,0,0,1-7.45,0c-2.1,2.86-2.43,7.43-1.16,11.08"/><path class="cls-33" d="M118.87,102.68A16.8,16.8,0,0,0,131,107.22c4.06-.22,7.72-3.11,10.7-6.64-6.93-4.42-17.52-4.28-22.81,2.1"/><path class="cls-22" d="M111.4,89.24s3.11,10.43,4.56,10.45,1.73-5.51,1.73-5.51,4.24,2.46,11.44,2.28a21.09,21.09,0,0,0,11.61-3.61s1.49,5.49,2.84,5.29,3.89-6.88,3.81-10.12c0,0-20.22,8.57-36,1.22"/><path class="cls-23" d="M117.07,94s-1.57-2.87-3.17-2.8,1.06,7.84,2,7.5,1.13-4.7,1.13-4.7"/><path class="cls-23" d="M118.14,93.84l-.07-1.61s14.56,2.32,22.52-1.22l0,1.42s-9.16,6.55-22.43,1.41"/><path class="cls-23" d="M141.28,92.52s1.63-2.46,3.41-2.44-.1,7.56-1.16,7.37-2.25-4.93-2.25-4.93"/><path class="cls-16" d="M149.43,117.11c-2.36-3.07-13.2-5.6-27.64-2s-11.45,7-9.73,10.75a5.79,5.79,0,0,1,.62,3.36c6.84-1.36,17.1-1.69,27.61-.87,2.66.22,4.84.44,6.63.71-1.49-3.68,4.65-9.22,2.51-12"/><path class="cls-34" d="M146.76,127c0-.09-23.06-3.61-34.2.21a6.88,6.88,0,0,1,.12,2c6.84-1.36,32.45-.43,34.24-.16a3.79,3.79,0,0,1-.16-2.07"/><path class="cls-16" d="M95.26,130.78c.22,2.11,1,3.19,2.79,2.42s.22-3-.73-5-2.53-1.8-2.06,2.62"/><path class="cls-16" d="M93.47,139.67c-.6,1.57,2.3-.06,5-.29s5-.11,4.42-1.18-7.45-3.54-9.37,1.47"/><path class="cls-16" d="M157.4,137c-.61,1.19,3.18-.57,5.3-.11s4.4.5,3-1-6.14-3.17-8.31,1.13"/><path class="cls-16" d="M160.52,127.29c-1.33.69-1.36,2.8.58,2.91s5-4.26,3.6-5.34-2,1.3-4.18,2.43"/><path class="cls-35" d="M117.63,87.55s13.12,4,23.59-1.09c0,0-10,7.33-23.59,1.09"/><path class="cls-35" d="M134.19,108.82c-3,1.94-6.67.15-6.71.13a.73.73,0,0,0-1,.32.74.74,0,0,0,.32,1c.19.09,4.46,2.19,8.15-.22a.72.72,0,0,0,.21-1,.73.73,0,0,0-1-.21"/><path class="cls-30" d="M105.27,119.45c0,.78-1,1.4-2.34,1.38s-2.31-.66-2.3-1.44S101.69,118,103,118s2.32.66,2.3,1.44"/><path class="cls-30" d="M108.48,124.27c-.13.45-.84.64-1.59.42s-1.25-.76-1.12-1.22.85-.64,1.6-.42,1.24.76,1.11,1.22"/><path class="cls-30" d="M97.63,117.35c.08.29-.24.64-.73.78s-.94,0-1-.28.24-.65.72-.78,1,0,1,.28"/><path class="cls-30" d="M109,117c-.07.3-.52.45-1,.34s-.83-.45-.77-.75.52-.44,1-.33.84.44.77.74"/><path class="cls-30" d="M154.77,120.81c0,.78,1,1.42,2.31,1.44s2.33-.6,2.34-1.38-1-1.42-2.31-1.44-2.32.6-2.34,1.38"/><path class="cls-30" d="M151.45,125.55c.12.45.83.66,1.58.46s1.26-.73,1.14-1.19-.83-.66-1.58-.46-1.27.73-1.14,1.19"/><path class="cls-30" d="M162.47,118.91c-.09.29.23.64.71.79s.94,0,1-.25-.23-.65-.71-.8-.94,0-1,.26"/><path class="cls-30" d="M151.1,118.22c.06.3.51.46,1,.36s.84-.42.78-.72-.51-.46-1-.36-.84.42-.78.72"/><path class="cls-36" d="M125.32,26.82l-9.16,3.84s3.55,6.8,14,6.31,12.36-7.33,12.36-7.33l-6-3.94-11.16,1.12"/><g class="cls-37"><path class="cls-38" d="M117.8,30.73c0,.3,2.48,5.86,12.2,5.47s11-6.41,11-6.41L129.16,0,117.8,30.73"/></g><path class="cls-23" d="M122.66,35.07A17,17,0,0,0,130,36.2a17.39,17.39,0,0,0,5.47-1L129,1.12l-6.35,34"/><path class="cls-39" d="M139.7,27c.38.07-3.32,4.77-10.06,5.07-7,.25-10.14-5.49-9.78-5.32.07-.35,3.35,4.76,9.74,4.47A17,17,0,0,0,139.7,27"/><path class="cls-39" d="M136.53,19.83c.27,0-2.35,3.37-7.11,3.58-5,.17-7.17-3.88-6.92-3.76,0-.25,2.37,3.36,6.89,3.16a12.07,12.07,0,0,0,7.14-3"/><path class="cls-39" d="M134.21,13.2c.18,0-1.47,2.27-4.6,2.52A4.79,4.79,0,0,1,125,13.41a6,6,0,0,0,4.6,1.92,7.92,7.92,0,0,0,4.63-2.13"/><path class="cls-39" d="M132.37,8.23a3.79,3.79,0,0,1-3.08,1.55,3.15,3.15,0,0,1-3-1.63,4,4,0,0,0,3,1.37,5.2,5.2,0,0,0,3.1-1.29"/><path class="cls-27" d="M63.39,113.21s3.82,6,5,9.71,1.27,7,3.42,11.22a10.65,10.65,0,0,0-.75,5.91s1.85,1.22,6.41,1.44,5.28-2.3,5.28-2.3-1-4.25-4.34-4.63-4.72-1.42-4.72-1.42-2.94-8.5-2.91-11.55.39-17.09-7.34-8.38"/><path class="cls-28" d="M72.25,137.84c-1.29,1.25,2.47,2.54,4.34,2.69s2.19-4.36,3.32-4.47-.49-.88-3.49-1.17-3-.92-3.85-3.19-1.36-1.39-.64,1,1.71,3.78.32,5.14"/><path class="cls-40" d="M93.41,89.39a3.77,3.77,0,0,0-2.91-3.73,3.76,3.76,0,0,0,.73-7.06,4.13,4.13,0,0,0-.37-6.76,4.43,4.43,0,0,0-3.4-7.21h-.07a2.84,2.84,0,0,0,.08-.66,3.51,3.51,0,0,0-2.9-3.5,3.84,3.84,0,0,0,.09-.75,4.06,4.06,0,0,0-5.19-4,4.42,4.42,0,0,0-4.31-3.8,4.32,4.32,0,0,0-1,.13c0-.13,0-.25,0-.38a4,4,0,0,0-6.4-3.36,4,4,0,0,0-6.24-.15,4.84,4.84,0,0,0-3.84-2,4.77,4.77,0,0,0-3.2,1.18,4.56,4.56,0,0,0-6-.92,5.21,5.21,0,0,0-1.06-.15,4.6,4.6,0,0,0-3.89,2.06A5.88,5.88,0,0,0,35,52.42,5.88,5.88,0,0,0,27.48,58c0,.13,0,.26,0,.39h0A5.47,5.47,0,0,0,22.91,67a2.62,2.62,0,0,0-2.11,2.54,2.7,2.7,0,0,0,.39,1.38,2.73,2.73,0,0,0-1.48,2.38,2.76,2.76,0,0,0,1.16,2.28,3.63,3.63,0,0,0-2.21,6.23,3.25,3.25,0,0,0-1.57,5.94,3.51,3.51,0,0,0,1.7,6.57l.19,0a4.38,4.38,0,0,0,2,7.15,4,4,0,0,0-.86,2.41,4,4,0,0,0,6.32,3.4A3.9,3.9,0,0,0,30,110.37a4.93,4.93,0,0,0-.05.54,3.65,3.65,0,0,0,3.6,3.7A3.61,3.61,0,0,0,36.63,113a4.42,4.42,0,0,0,4.21,3.29,4.38,4.38,0,0,0,2.92-1.07,4.15,4.15,0,0,0,7.58.5,4,4,0,0,0,3.46,2,4,4,0,0,0,3.25-1.59,4,4,0,0,0,6.81.58,4.07,4.07,0,0,0,.78.11,3.4,3.4,0,0,0,3.44-3.35,3.06,3.06,0,0,0-.17-1.06,3.28,3.28,0,0,0,1.75.56,3.14,3.14,0,0,0,3.17-3.1s0-.06,0-.08a3.12,3.12,0,0,0,5-2.47,4.38,4.38,0,0,0,0-.51,3.78,3.78,0,0,0,6.1-2.94,4,4,0,0,0-.27-1.44h0a2.87,2.87,0,0,0,2.91-2.83,2.79,2.79,0,0,0-.74-1.94,3.24,3.24,0,0,0,.76.11,3.13,3.13,0,0,0,3.17-3.09,3.18,3.18,0,0,0-.44-1.65,3.77,3.77,0,0,0,3.12-3.67"/><path class="cls-41" d="M76.5,98.86a2.75,2.75,0,0,0,2.38-1.29,25.5,25.5,0,0,1-3.2,1.15,2.76,2.76,0,0,0,.82.14"/><path class="cls-42" d="M88.79,86A3.09,3.09,0,0,0,86.41,83a3.08,3.08,0,0,0,.6-5.78,3.37,3.37,0,0,0-.31-5.52,3.58,3.58,0,0,0,.81-2.21,3.64,3.64,0,0,0-3.58-3.68h-.06a2.48,2.48,0,0,0,.06-.54,2.86,2.86,0,0,0-2.36-2.86,4.2,4.2,0,0,0,.07-.62,3.37,3.37,0,0,0-3.33-3.41,3.52,3.52,0,0,0-.92.13,3.6,3.6,0,0,0-3.52-3.1,3.2,3.2,0,0,0-.83.09c0-.1,0-.2,0-.3a3.33,3.33,0,0,0-3.28-3.37,3.28,3.28,0,0,0-2,.63,3.27,3.27,0,0,0-2.56-1.29,3.33,3.33,0,0,0-2.54,1.15A3.93,3.93,0,0,0,57,51.66a3.72,3.72,0,0,0-2.81-1.33,3.81,3.81,0,0,0-2.06.58,4.14,4.14,0,0,0-.86-.12,3.79,3.79,0,0,0-3.19,1.69,4.72,4.72,0,0,0-2.27-.61,4.8,4.8,0,0,0-4.79,4,5.09,5.09,0,0,0-1.24-.19,4.83,4.83,0,0,0-4.87,4.75c0,.1,0,.21,0,.32h0a4.47,4.47,0,0,0-3.73,7,2.13,2.13,0,0,0-1.72,2.07,2.06,2.06,0,0,0,.31,1.13,2.23,2.23,0,0,0-.26,3.81,3,3,0,0,0-1.81,5.09,2.66,2.66,0,0,0-1.29,4.86A2.85,2.85,0,0,0,25,87.15a2.88,2.88,0,0,0,2.84,2.92l.15,0a3.6,3.6,0,0,0,1.63,5.85,3.24,3.24,0,0,0-.7,2,3.3,3.3,0,0,0,3.26,3.34,3.25,3.25,0,0,0,1.9-.57A3.21,3.21,0,0,0,37,103.19a2.2,2.2,0,0,0-.05.44,3,3,0,0,0,5.47,1.7,3.58,3.58,0,0,0,5.82,1.81,3.39,3.39,0,0,0,6.2.4,3.28,3.28,0,0,0,5.48.39,3.29,3.29,0,0,0,5.57.46,2.71,2.71,0,0,0,3.45-2.64,2.82,2.82,0,0,0-.13-.87,2.55,2.55,0,0,0,4-2.07s0,0,0-.07a2.55,2.55,0,0,0,4.08-2,2,2,0,0,0,0-.42,3.06,3.06,0,0,0,1.85.66,3.09,3.09,0,0,0,3.13-3.06,3.13,3.13,0,0,0-.22-1.18h0A2.35,2.35,0,0,0,84,94.41a2.33,2.33,0,0,0-.6-1.59,2.16,2.16,0,0,0,.62.09,2.54,2.54,0,0,0,2.59-2.52A2.47,2.47,0,0,0,86.23,89a3.09,3.09,0,0,0,2.56-3"/><path class="cls-27" d="M81.81,85.07a2.23,2.23,0,0,0-1.72-2.2,2.22,2.22,0,0,0,.43-4.17,2.48,2.48,0,0,0,.93-1.89,2.44,2.44,0,0,0-1.16-2.11,2.58,2.58,0,0,0,.59-1.6,2.61,2.61,0,0,0-2.59-2.65h0a1.72,1.72,0,0,0,0-.39A2.07,2.07,0,0,0,76.58,68a2.22,2.22,0,0,0,0-.45,2.44,2.44,0,0,0-2.4-2.47,2.39,2.39,0,0,0-.66.1A2.61,2.61,0,0,0,71,62.93a2.48,2.48,0,0,0-.61.07,1.81,1.81,0,0,0,0-.23,2.41,2.41,0,0,0-2.37-2.43,2.47,2.47,0,0,0-1.42.45A2.36,2.36,0,0,0,63,60.7a2.9,2.9,0,0,0-2.27-1.18,3,3,0,0,0-1.9.7,2.73,2.73,0,0,0-2-1,2.78,2.78,0,0,0-1.48.43,2.59,2.59,0,0,0-.63-.09,2.74,2.74,0,0,0-2.3,1.22,3.53,3.53,0,0,0-1.65-.44,3.48,3.48,0,0,0-3.46,2.86,3.25,3.25,0,0,0-.89-.14,3.47,3.47,0,0,0-3.52,3.43,1.69,1.69,0,0,0,0,.23h0a3.24,3.24,0,0,0-2.7,5.1,1.53,1.53,0,0,0-1.25,1.49,1.63,1.63,0,0,0,.23.82,1.62,1.62,0,0,0-.19,2.75,2.15,2.15,0,0,0-1.31,3.68,1.94,1.94,0,0,0-1.78,1.89,2,2,0,0,0,.86,1.63,2.08,2.08,0,0,0,1,3.88h.11A2.59,2.59,0,0,0,39,92.2a2.38,2.38,0,0,0,1.85,3.85,2.43,2.43,0,0,0,1.38-.41,2.31,2.31,0,0,0,2.11,1.84,2.79,2.79,0,0,0,0,.32,2.16,2.16,0,0,0,4,1.22A2.62,2.62,0,0,0,50.74,101a2.57,2.57,0,0,0,1.72-.63,2.45,2.45,0,0,0,4.48.29,2.38,2.38,0,0,0,4,.28,2.37,2.37,0,0,0,4,.34,1.76,1.76,0,0,0,.46.06,2,2,0,0,0,2-2,1.88,1.88,0,0,0-.11-.62,1.94,1.94,0,0,0,1,.33,1.85,1.85,0,0,0,1.87-1.83v0a1.76,1.76,0,0,0,1.08.37,1.85,1.85,0,0,0,1.87-1.83c0-.1,0-.2,0-.3a2.16,2.16,0,0,0,1.34.47,2.23,2.23,0,0,0,2.1-3.06h0a1.7,1.7,0,0,0,1.72-1.67A1.75,1.75,0,0,0,77.9,90a2.12,2.12,0,0,0,.45.07,1.85,1.85,0,0,0,1.87-1.83,1.76,1.76,0,0,0-.26-1,2.24,2.24,0,0,0,1.85-2.18"/><path class="cls-43" d="M52.86,86.64a4.35,4.35,0,1,1-4.29-4.4,4.35,4.35,0,0,1,4.29,4.4"/><path class="cls-9" d="M51.4,86.89a3.35,3.35,0,1,1-3.3-3.38,3.34,3.34,0,0,1,3.3,3.38"/><path class="cls-44" d="M50.34,86.81a2.08,2.08,0,1,1-2.05-2.11,2.08,2.08,0,0,1,2.05,2.11"/><path class="cls-11" d="M48.31,88.36a1.08,1.08,0,1,1-1.06-1.1,1.09,1.09,0,0,1,1.06,1.1"/><path class="cls-43" d="M77.44,84.05a4.35,4.35,0,1,1-4.29-4.39,4.35,4.35,0,0,1,4.29,4.39"/><path class="cls-9" d="M76,84.31a3.35,3.35,0,1,1-3.31-3.39A3.34,3.34,0,0,1,76,84.31"/><path class="cls-44" d="M74.93,84.3A2.3,2.3,0,1,1,72.67,82a2.3,2.3,0,0,1,2.26,2.32"/><path class="cls-11" d="M72.5,85.59a1,1,0,0,1-1,1,1,1,0,0,1,0-2,1,1,0,0,1,1,1"/><path class="cls-45" d="M66.47,92.15a5.59,5.59,0,0,1-4,2.71,3.55,3.55,0,0,1-3.58-2,.39.39,0,0,0-.5-.19.37.37,0,0,0-.2.49,4.42,4.42,0,0,0,4.34,2.5,6.18,6.18,0,0,0,4.61-3.11A.37.37,0,0,0,67,92a.36.36,0,0,0-.5.16"/><path class="cls-46" d="M60.34,96.79c-.14.85,2.23,1.57,2.5.54s-2.39-1.17-2.5-.54"/><path class="cls-47" d="M60.48,92.52a5.48,5.48,0,0,0,2.65.36c1.48-.18,3.17-1.32,2.27-1.59s-3.49,1.25-4.92,1.23"/><path class="cls-47" d="M59.79,98.07S62.94,100.62,66,97c0,0-2.22,5.83-6.16,1.11"/><path class="cls-48" d="M40.85,81.86s3.11-6,11-4.07l.57-2.33s-7.28-3-12.29,5.22l.69,1.18"/><path class="cls-48" d="M78.52,78.38s-3.89-5.56-11.47-2.55l-.88-2.23S73,69.6,79,77.11l-.52,1.27"/><path class="cls-27" d="M25.52,94.53a119.41,119.41,0,0,1-17.2-7.41c-7-4-11.28-9.48-5.9-13.24s3.05,3,5.22,3,2-2.53,3.86,2.6,7.68,9.91,10.75,11,6,3,3.27,4"/><path class="cls-28" d="M1.64,80c-.5-1.18,0-3.39,2.3-2.73s3.44,2.19,5.47,2.47,2.69,1.67,1.48,3.16,4.33,5.2,1.83,5.33S2.66,82.37,1.64,80"/><path class="cls-27" d="M42.48,114s4.43-2.32,4.88,2.6c0,0-4.16,6.72-4.07,13s.75,7.63,3.13,7.32,5,2.61,4.51,5-6.14,3.48-10.5.21a17.23,17.23,0,0,1,.59-6.77C42.09,131,41,126.89,42.48,114"/><path class="cls-28" d="M43.14,140.84c1.14,2.08,3,.29,4.27-.57s3,1.67,3,1.67-1.94-4.92-4-4.06-2.73-1.42-3.34-3.3-1.54,3.36,0,6.26"/><path class="cls-27" d="M50,44.84c-3.28,4.72-4.19,15.65-4.19,15.65l1-.37c1.1-5.65,4.37-9.73,7.78-14.45s-1.35-5.55-4.62-.83"/><path class="cls-28" d="M48,53.44c.14,1,3.15-4.85,4.59-7s.94-3.47-1-1.56S47.68,51,48,53.44"/><path class="cls-27" d="M69.52,45.51C66.75,49.48,66,58.69,66,58.69l.87-.31c.93-4.76,3.68-8.2,6.55-12.17s-1.14-4.67-3.89-.7"/><path class="cls-28" d="M67.91,52.75c.12.86,2.65-4.08,3.86-5.91s.8-2.91-.85-1.31-3.31,5.16-3,7.22"/><path class="cls-4" d="M239.36,54s-3.09.42-7.41-2.26S227.43,49,227,55.21s.42,2.67,4.53,2.06,8.85,1.23,8.85,1.23l-1-4.53"/><path class="cls-49" d="M229.32,51.11c-1.06-.31-2.62,6.3-1.27,6s2.53-5.67,1.27-6"/><path class="cls-4" d="M286.38,54s3.09.42,7.41-2.26,4.52-2.67,4.94,3.5-.42,2.67-4.53,2.06-8.85,1.23-8.85,1.23l1-4.53"/><path class="cls-49" d="M296.42,51.11c1.06-.31,2.62,6.3,1.26,6s-2.52-5.67-1.26-6"/><path class="cls-49" d="M292.36,137.46c-1.35-3.22-5.08-1.86-13.73-7s-6.11-9.21-5.94-26.51a233.79,233.79,0,0,0-1.53-30H257a233.79,233.79,0,0,0-1.53,30c.17,17.3,2.72,21.42-5.94,26.51s-12.38,3.73-13.73,7,2.2,4.92,4.23,3.9c0,0,0,3.06,2.72,2.72s3.22-.34,4.92-2c0,0-1,2.37,2.54,3.39s8.48.68,8.32-4.58,4.07-3.74,3.73-8-3.91-4.08-3.23-11.2-2-27.36,1-30.24c.57-.54,2.84-.91,4-1.15,1.17.24,3.44.61,4,1.15,3.05,2.88.34,23.12,1,30.24s-2.89,6.95-3.23,11.2,3.9,2.71,3.73,8,4.75,5.59,8.32,4.58,2.54-3.39,2.54-3.39c1.7,1.69,2.21,1.69,4.92,2s2.72-2.72,2.72-2.72c2,1,5.59-.67,4.23-3.9"/><path class="cls-4" d="M271.45,76.46c-.17-1.6-.29-2.48-.29-2.48H257s-.14,1-.33,2.92a34.56,34.56,0,0,0,14.74-.44"/><path class="cls-50" d="M247.94,141.52s.3-1.89,3.07-2.51.77-2-.67-1.79-3.53-1.38-5.27-1.18a3.23,3.23,0,0,0-3.59-1.13s1.54.42,1.84,1.59-2.25,1.74-2.45,4a5.64,5.64,0,0,1,3.63-3.12c2.56-.57,6,.2,4.92,1.07s-1.84,1.59-1.48,3.07"/><path class="cls-51" d="M248.34,142.44c-.28.36.16,1.08,1.85.57s2.26,1.84,3.53.51-2.2-5.07-5.38-1.08"/><path class="cls-51" d="M241,140.77c-.22.28.13.85,1.46.44s1.76,1.45,2.77.41-1.73-4-4.23-.85"/><path class="cls-51" d="M236.5,137.28c-.21.26.11.79,1.34.42s1.65,1.34,2.59.37-1.61-3.71-3.93-.79"/><path class="cls-50" d="M280.54,141.78s-.3-1.9-3.07-2.51-.77-2.05.67-1.79,3.53-1.39,5.27-1.18a3.21,3.21,0,0,1,3.59-1.13s-1.54.41-1.85,1.59,2.26,1.74,2.46,4a5.64,5.64,0,0,0-3.64-3.12c-2.56-.56-6,.21-4.91,1.08s1.84,1.58,1.48,3.07"/><path class="cls-51" d="M280.13,142.7c.29.36-.15,1.08-1.84.57s-2.25,1.84-3.54.51,2.21-5.07,5.38-1.08"/><path class="cls-51" d="M287.47,141c.23.28-.12.85-1.45.44s-1.77,1.45-2.77.41,1.73-4,4.22-.85"/><path class="cls-51" d="M292,137.54c.21.26-.11.79-1.35.41s-1.65,1.35-2.58.38,1.61-3.72,3.93-.79"/><path class="cls-52" d="M259,136.34a16.92,16.92,0,0,0,.53-6c-.4-2.81,2.55.27,2.42,2.56s-2.95,3.48-2.95,3.48"/><path class="cls-52" d="M269.71,136.07a16.59,16.59,0,0,1-.53-6c.4-2.82-2.55.26-2.42,2.55s2.95,3.48,2.95,3.48"/><path class="cls-49" d="M238.84,36.54c-3.25,2.51-3.28,8.06-.32,18.58s4.11,18.41,11.18,19.07,27.62,2.14,31.23.33,7.57-17.59,10.2-26,1-11.89-5.1-13.31c-12.66-3-39.95-4.28-47.19,1.31"/><path class="cls-53" d="M275.64,49.47A4.35,4.35,0,1,0,280,45.12a4.35,4.35,0,0,0-4.35,4.35"/><path class="cls-9" d="M276.07,49.53a3.35,3.35,0,1,0,3.36-3.35,3.35,3.35,0,0,0-3.36,3.35"/><path class="cls-10" d="M277.23,49.53a2.2,2.2,0,1,0,2.2-2.2,2.2,2.2,0,0,0-2.2,2.2"/><path class="cls-11" d="M277.13,50.85a1.08,1.08,0,1,0,1.08-1.08,1.08,1.08,0,0,0-1.08,1.08"/><path class="cls-53" d="M242.14,49.58a4.35,4.35,0,1,0,4.35-4.35,4.34,4.34,0,0,0-4.35,4.35"/><path class="cls-9" d="M243.59,49.85a3.35,3.35,0,1,0,3.35-3.35,3.35,3.35,0,0,0-3.35,3.35"/><path class="cls-10" d="M244.75,49.85a2.2,2.2,0,1,0,2.19-2.2,2.2,2.2,0,0,0-2.19,2.2"/><path class="cls-11" d="M244.65,51.17a1.08,1.08,0,1,0,1.08-1.08,1.08,1.08,0,0,0-1.08,1.08"/><path class="cls-54" d="M256.45,56.45c0-1.66,4.39-1.51,8.24-1.51s7.48,0,7.6,2S269.6,72,264.57,72.34s-8.12-6.48-8.12-15.89"/><path class="cls-55" d="M261.82,67.58s-2.61-4.73-.5-5.76,5.63-.79,5.77.59a20.6,20.6,0,0,1-.84,4.88l-4.43.29"/><path class="cls-22" d="M256.89,56.25l.68,2.28a5.76,5.76,0,0,0,1.67.4c.05.52,1.24,1.27,1.24,1.27a13.11,13.11,0,0,0,4.19-.08c.47.38,3.3.21,4.08,0s.92-1.34.92-1.34a17,17,0,0,0,1.87-.3l.27-2a32.11,32.11,0,0,0-14.92-.22"/><path class="cls-23" d="M259.29,58.7s-.57-2.35-1-2.41a1.86,1.86,0,0,0-.94.23l.41,1.9a1.81,1.81,0,0,0,1.49.28"/><path class="cls-23" d="M269.7,58.54a6,6,0,0,1,.36-1.95c.28-.33,1.49.11,1.49.11l-.35,1.58-1.5.26"/><path class="cls-23" d="M263.62,55.86c-1.14-.23-3.24-.26-3.94.52-.41.44-.25,1.3.05,2.44,0,0,.32,1.14,1.14,1.18s3-.06,3-.06l.68-.81.54.77a9.62,9.62,0,0,0,3.15,0c.95-.33,1-.72,1.08-1.68a3.32,3.32,0,0,0-.05-1.62c-.41-.73-2.17-1-4.25-.69-.33.05-.21.31-.57.39,0,0-.06-.31-.82-.47"/><path class="cls-56" d="M259.39,68s2.08,3.78,4.82,3.52,4.29-3.39,4.29-3.39-3.64-5.2-9.11-.13"/><path class="cls-9" d="M244.16,39.41a8.33,8.33,0,0,0-4.78,3.86L242,44.68A5.24,5.24,0,0,1,245,42.31a5.48,5.48,0,0,1,4.29,1l1.61-2.55a8.31,8.31,0,0,0-6.7-1.36"/><path class="cls-9" d="M282,39.41a8.29,8.29,0,0,1,4.77,3.86l-2.66,1.41a5.2,5.2,0,0,0-2.91-2.37,5.5,5.5,0,0,0-4.3,1l-1.6-2.55a8.3,8.3,0,0,1,6.7-1.36"/><path class="cls-53" d="M253.79,30.18s-2.49,7.1,2.59,7.1,11.83,0,13.52,2.81-6.42,3.95-6.65.9c0,0-1.24,1.58,2.59,3.27S273.16,42,273.16,42l-.33,1.46s4.17-1.58,2.7-5.41-9.35-16.9-21.74-7.88"/><path class="cls-57" d="M265.35,18.19c-13.75-.49-16.08,16.23-16.08,16.23l9.28-4.67,10.27-.48,10.86,4.5s.23-15.06-14.33-15.58"/><path class="cls-38" d="M254,31.45s.64-8.77,2.43-10.82,8.87-7.23,17.26.11c0,0,2.31,10.29,1.59,10.92s-9.65-5.83-21.28-.21"/><path class="cls-58" d="M249.27,34.22s1.69,5.09,3.58,4.49,5.6-9,12.28-8.65,8.76,9,11,9.19,3.59-5.48,3.59-5.48-14.73-13.68-30.41.45"/><path class="cls-59" d="M265.05,27.17c1.16,0,4.84-7.6,3.77-8.58s-6.71-1.26-7.87,0,2.49,8.58,4.1,8.59"/></g></g></g></svg>