<?xml version="1.0" encoding="utf-8"?>
<!-- Generator: Adobe Illustrator 25.3.1, SVG Export Plug-In . SVG Version: 6.00 Build 0)  -->
<svg version="1.1" id="Calque_1" xmlns="http://www.w3.org/2000/svg" xmlns:xlink="http://www.w3.org/1999/xlink" x="0px" y="0px"
	 viewBox="0 0 375 375" style="enable-background:new 0 0 375 375;" xml:space="preserve">
<style type="text/css">
	.st0{clip-path:url(#SVGID_2_);}
	.st1{fill:#FFFFFF;}
	.st2{clip-path:url(#SVGID_4_);}
</style>
<path d="M357.6,86.3C357.6,86.3,357.6,86.4,357.6,86.3L357.6,86.3L357.6,86.3"/>
<g id="surface1">
	<g>
		<g>
			<defs>
				<rect id="SVGID_1_" x="98.7" y="52.7" width="177.5" height="103.7"/>
			</defs>
			<clipPath id="SVGID_2_">
				<use xlink:href="#SVGID_1_"  style="overflow:visible;"/>
			</clipPath>
			<g class="st0">
				<path class="st1" d="M243.5,122.9c9.6,9.3,16.8,20.7,20.7,33.5c2.9-0.7,5.7-1.8,8.6-2.5l3.2-1.1c-11.4-35.6-43.5-62-82-64.5
					l-3.2-22.5c2.1-1.1,3.9-3.2,3.9-6.1c0-3.6-2.9-6.8-6.8-6.8c-3.6,0-6.8,2.9-6.8,6.8c0,2.5,1.4,5,3.9,6.1l-3.2,22.5
					c-38.9,2.5-70.9,28.9-82,64.5l3.2,1.1c2.9,1.1,5.7,1.8,8.6,2.5c3.9-12.5,11.1-23.9,20.7-33.5c15-14.6,34.9-22.5,56-22.5
					C208.5,100.5,228.1,108.3,243.5,122.9"/>
			</g>
		</g>
	</g>
	<g>
		<g>
			<defs>
				<rect id="SVGID_3_" y="163.9" width="375" height="158.3"/>
			</defs>
			<clipPath id="SVGID_4_">
				<use xlink:href="#SVGID_3_"  style="overflow:visible;"/>
			</clipPath>
			<g class="st2">
				<path class="st1" d="M309.4,213.8c-5.7,0-10.3-4.6-10.3-10.3c0-5.7,4.6-10.3,10.3-10.3c5.7,0,10.3,4.6,10.3,10.3
					S315.1,213.8,309.4,213.8z M245.2,225.6c-5.7,0-10.3-4.6-10.3-10.3c0-5.7,4.6-10.3,10.3-10.3c5.7,0,10.3,4.6,10.3,10.3
					S251,225.6,245.2,225.6z M187.5,230.2c-5.7,0-10.3-4.6-10.3-10.3c0-5.7,4.6-10.3,10.3-10.3c5.7,0,10.3,4.6,10.3,10.3
					C197.8,225.6,193.2,230.2,187.5,230.2z M129.8,225.6c-5.7,0-10.3-4.6-10.3-10.3c0-5.7,4.6-10.3,10.3-10.3
					c5.7,0,10.3,4.6,10.3,10.3C140.1,220.9,135.5,225.6,129.8,225.6z M65.6,213.8c-5.7,0-10.3-4.6-10.3-10.3
					c0-5.7,4.6-10.3,10.3-10.3s10.3,4.6,10.3,10.3C75.9,209.2,71.3,213.8,65.6,213.8z M276.3,165.3c-25.3,8.2-56,13.2-88.8,13.2
					s-63.5-5-88.8-13.2c-39.6,10.7-72,28.5-91.3,49.9c0,0,42.4,25.7,140.4,36.7c-56.3-3.2-107.3-12.5-147.6-26.4
					C13.5,244.5,36,260.9,64.9,273l-2.1,33.2c-0.4,2.9,1.4,3.9,3.9,1.8l39.6-31.7h3.2l-2.5-0.7l6.8-5.3l-9.6,16
					c23.5,6.1,49.9,9.3,77.4,9.6v20c0,3.6,2.9,6.1,6.1,6.1c3.6,0,6.1-2.9,6.1-6.1v-20l0,0v-24.6l9.3,24.6
					c27.1-1.1,52.8-5.3,75.9-11.8l29.9,23.9c2.1,1.8,3.9,1.1,3.9-1.8l-2.1-33.2l0,0l-1.4-21.4l8.2,18.5
					c25.7-11.8,45.6-27.1,57.7-44.6c0-0.4,0.4-0.4,0.4-0.7C357.5,198.8,321.9,177.5,276.3,165.3"/>
			</g>
		</g>
	</g>
	<path class="st1" d="M139.4,162.5c4.3-26.7,19.2-48.5,41-58.8c-37.4,6.8-49.9,41.7-53.8,56.3C130.8,161.1,135.1,161.8,139.4,162.5"
		/>
</g>
</svg>
